<svg width="27" height="26" viewBox="0 0 27 26" fill="none" xmlns="http://www.w3.org/2000/svg">
<path d="M13.4038 6.89796C12.1969 6.89796 11.0172 7.25584 10.0137 7.92634C9.01022 8.59684 8.22811 9.54985 7.76626 10.6648C7.30441 11.7799 7.18357 13.0068 7.41902 14.1904C7.65447 15.3741 8.23563 16.4614 9.08901 17.3148C9.9424 18.1682 11.0297 18.7493 12.2134 18.9848C13.397 19.2202 14.624 19.0994 15.739 18.6376C16.854 18.1757 17.807 17.3936 18.4775 16.3901C19.148 15.3866 19.5058 14.2069 19.5058 13C19.504 11.3822 18.8605 9.83118 17.7166 8.68722C16.5726 7.54326 15.0216 6.89978 13.4038 6.89796ZM13.4038 17.5102C12.5118 17.5102 11.6398 17.2457 10.8981 16.7501C10.1564 16.2545 9.57829 15.5501 9.23692 14.726C8.89556 13.9018 8.80624 12.995 8.98027 12.1201C9.15429 11.2452 9.58385 10.4416 10.2146 9.8108C10.8454 9.18004 11.649 8.75049 12.5239 8.57646C13.3988 8.40243 14.3057 8.49175 15.1298 8.83311C15.9539 9.17448 16.6583 9.75257 17.1539 10.4943C17.6495 11.236 17.914 12.108 17.914 13C17.9126 14.1958 17.437 15.3422 16.5915 16.1877C15.746 17.0332 14.5996 17.5088 13.4038 17.5102ZM19.2405 0H7.56707C5.66793 0.00217676 3.84719 0.757575 2.50428 2.10048C1.16138 3.44338 0.405985 5.26412 0.403809 7.16327V18.8367C0.405985 20.7359 1.16138 22.5566 2.50428 23.8995C3.84719 25.2424 5.66793 25.9978 7.56707 26H19.2405C21.1397 25.9978 22.9604 25.2424 24.3033 23.8995C25.6462 22.5566 26.4016 20.7359 26.4038 18.8367V7.16327C26.4016 5.26412 25.6462 3.44338 24.3033 2.10048C22.9604 0.757575 21.1397 0.00217676 19.2405 0ZM24.812 18.8367C24.8103 20.3139 24.2228 21.73 23.1783 22.7745C22.1338 23.819 20.7177 24.4065 19.2405 24.4082H7.56707C6.08995 24.4065 4.67379 23.819 3.6293 22.7745C2.58481 21.73 1.9973 20.3139 1.99565 18.8367V7.16327C1.9973 5.68614 2.58481 4.26998 3.6293 3.22549C4.67379 2.181 6.08995 1.59349 7.56707 1.59184H19.2405C20.7177 1.59349 22.1338 2.181 23.1783 3.22549C24.2228 4.26998 24.8103 5.68614 24.812 7.16327V18.8367ZM21.6283 6.10204C21.6283 6.3644 21.5505 6.62087 21.4047 6.83902C21.259 7.05717 21.0518 7.22719 20.8094 7.32759C20.567 7.428 20.3003 7.45427 20.043 7.40308C19.7857 7.3519 19.5493 7.22556 19.3638 7.04004C19.1782 6.85452 19.0519 6.61816 19.0007 6.36083C18.9495 6.10351 18.9758 5.83679 19.0762 5.5944C19.1766 5.35201 19.3466 5.14483 19.5648 4.99907C19.7829 4.85331 20.0394 4.77551 20.3018 4.77551C20.6535 4.77593 20.9906 4.91583 21.2393 5.16451C21.488 5.41319 21.6279 5.75035 21.6283 6.10204Z" fill="white"/>
</svg>
