<svg width="29" height="25" viewBox="0 0 29 25" fill="none" xmlns="http://www.w3.org/2000/svg">
<path d="M28.0201 0.441918C27.7692 0.225168 27.4637 0.0812216 27.1368 0.0256751C26.8099 -0.0298714 26.474 0.00510026 26.1656 0.126801L2.15356 9.56016C1.78732 9.70402 1.47751 9.96262 1.2705 10.2973C1.06349 10.6319 0.970402 11.0246 1.00518 11.4165C1.03995 11.8084 1.20071 12.1786 1.4634 12.4716C1.72609 12.7645 2.07658 12.9645 2.46243 13.0417L8.77077 14.3032V22.1347C8.77039 22.4951 8.87701 22.8475 9.0771 23.1473C9.27719 23.4471 9.56176 23.6808 9.89476 23.8187C10.2278 23.9566 10.5942 23.9926 10.9477 23.9221C11.3011 23.8516 11.6257 23.6777 11.8803 23.4226L15.4282 19.8746L20.7346 24.5444C21.0646 24.8374 21.4905 24.9995 21.9318 25C22.1237 24.9998 22.3143 24.9695 22.4968 24.9104C22.7979 24.8149 23.0687 24.6421 23.2821 24.4093C23.4956 24.1765 23.6443 23.8918 23.7133 23.5837L28.607 2.22893C28.6816 1.90585 28.6663 1.56854 28.5629 1.25353C28.4594 0.938514 28.2718 0.6578 28.0203 0.441788L28.0201 0.441918ZM2.5604 11.2785C2.55197 11.222 2.56381 11.1645 2.59383 11.1159C2.62384 11.0674 2.67008 11.0311 2.72434 11.0134L22.8165 3.12003L9.37043 12.831L2.76857 11.5106C2.71202 11.5028 2.66006 11.4752 2.62195 11.4327C2.58383 11.3902 2.56202 11.3355 2.5604 11.2785ZM10.7762 22.3188C10.7398 22.3551 10.6935 22.3799 10.643 22.39C10.5925 22.4 10.5402 22.3948 10.4927 22.3752C10.4451 22.3555 10.4045 22.3221 10.3759 22.2793C10.3473 22.2366 10.3321 22.1863 10.332 22.1348V15.3901L14.2538 18.8413L10.7762 22.3188ZM22.1915 23.235C22.1814 23.2789 22.1602 23.3195 22.1297 23.3528C22.0992 23.386 22.0607 23.4108 22.0178 23.4247C21.9748 23.4385 21.9291 23.441 21.8849 23.4318C21.8408 23.4226 21.7998 23.4022 21.7659 23.3724L10.8013 13.7236L27.0625 1.97938L22.1915 23.235Z" fill="white"/>
</svg>
