<svg width="25" height="25" viewBox="0 0 25 25" fill="none" xmlns="http://www.w3.org/2000/svg">
<path d="M12.4991 0C10.3196 0.000586398 8.17815 0.570903 6.28708 1.65439C4.396 2.73788 2.82102 4.29689 1.71831 6.17682C0.615602 8.05676 0.0234866 10.1923 0.000684439 12.3716C-0.0221177 14.551 0.525185 16.6985 1.58832 18.601L0.513022 22.3643C0.428922 22.6585 0.425034 22.9698 0.501761 23.266C0.578488 23.5622 0.733038 23.8325 0.949391 24.0489C1.16574 24.2652 1.43603 24.4198 1.73223 24.4965C2.02842 24.5733 2.33976 24.5694 2.63395 24.4853L6.3973 23.41C8.06441 24.3423 9.923 24.8801 11.8303 24.9821C13.7377 25.0842 15.643 24.7478 17.4001 23.9987C19.1572 23.2497 20.7192 22.108 21.9663 20.6612C23.2134 19.2144 24.1123 17.5011 24.5941 15.6528C25.0758 13.8045 25.1276 11.8703 24.7454 9.99887C24.3632 8.12743 23.5573 6.36846 22.3894 4.85704C21.2215 3.34561 19.7228 2.12193 18.0083 1.27996C16.2938 0.437996 14.4092 0.00013378 12.4991 0ZM12.4991 23.5278C10.5184 23.5292 8.57405 22.9963 6.8708 21.9854C6.78465 21.9342 6.68896 21.9011 6.58958 21.8882C6.49021 21.8753 6.38925 21.8829 6.29289 21.9104L2.22994 23.0712C2.18793 23.0832 2.14348 23.0838 2.10118 23.0728C2.05888 23.0619 2.02028 23.0398 1.98938 23.0089C1.95848 22.9781 1.9364 22.9395 1.92543 22.8972C1.91447 22.8549 1.91502 22.8104 1.92702 22.7684L3.08772 18.7053C3.11525 18.609 3.12279 18.5081 3.10989 18.4088C3.097 18.3094 3.06393 18.2138 3.01273 18.1277C1.77052 16.0349 1.25535 13.5899 1.54748 11.1738C1.83961 8.75769 2.92263 6.50602 4.62783 4.76956C6.33303 3.0331 8.56466 1.90936 10.9751 1.5734C13.3855 1.23743 15.8394 1.7081 17.9544 2.91209C20.0694 4.11608 21.7269 5.98578 22.6686 8.22994C23.6103 10.4741 23.7833 12.9667 23.1607 15.3194C22.5381 17.6722 21.1549 19.7529 19.2265 21.2376C17.2981 22.7223 14.9328 23.5275 12.4991 23.5278ZM18.8104 14.5587L16.3032 13.1258C16.0386 12.9749 15.7385 12.8971 15.4339 12.9004C15.1292 12.9037 14.8309 12.9879 14.5695 13.1444L12.9955 14.0889C12.1116 13.6118 11.3865 12.8866 10.9095 12.0027L11.8539 10.4287C12.0105 10.1673 12.0947 9.869 12.098 9.56433C12.1012 9.25966 12.0233 8.95962 11.8723 8.69499L10.4397 6.18781C10.3012 5.94622 10.1015 5.74541 9.86067 5.60566C9.61983 5.4659 9.3464 5.39213 9.06795 5.39179C7.96565 5.39213 6.90838 5.82915 6.12754 6.60719C5.34669 7.38523 4.90588 8.44093 4.90157 9.54322C4.89959 10.9284 5.17071 12.3004 5.69942 13.5807C6.22814 14.861 7.00408 16.0245 7.98285 17.0047C8.96163 17.9849 10.124 18.7625 11.4036 19.293C12.6832 19.8236 14.0547 20.0967 15.4399 20.0967H15.455C16.5573 20.0923 17.613 19.6515 18.391 18.8707C19.1691 18.0898 19.6061 17.0326 19.6064 15.9303C19.6061 15.6518 19.5324 15.3784 19.3926 15.1376C19.2528 14.8968 19.052 14.6971 18.8104 14.5587ZM15.4529 18.6262H15.4401C14.2482 18.6262 13.068 18.3912 11.9669 17.9347C10.8659 17.4782 9.86571 16.8091 9.0235 15.9657C8.18129 15.1223 7.51361 14.1212 7.05865 13.0195C6.60369 11.9179 6.37038 10.7373 6.37206 9.54542C6.37523 8.83258 6.66069 8.15002 7.16594 7.64716C7.6712 7.14429 8.3551 6.86207 9.06795 6.86227C9.08723 6.86229 9.10617 6.8674 9.12284 6.87709C9.13952 6.88677 9.15334 6.90068 9.16292 6.91742L10.5955 9.4246C10.6171 9.46238 10.6282 9.50521 10.6278 9.54871C10.6273 9.59221 10.6153 9.63481 10.593 9.67213L9.44231 11.5899C9.38134 11.6916 9.34586 11.8065 9.33891 11.9249C9.33195 12.0432 9.35372 12.1615 9.40236 12.2696C10.0666 13.7481 11.2502 14.9316 12.7287 15.5959C12.8369 15.6445 12.9551 15.6663 13.0735 15.6593C13.1919 15.6523 13.3068 15.6168 13.4085 15.5558L15.326 14.4054C15.3633 14.3831 15.406 14.371 15.4495 14.3705C15.493 14.3701 15.5359 14.3811 15.5738 14.4026L18.0809 15.8354C18.0976 15.845 18.1115 15.8588 18.1212 15.8755C18.1308 15.8921 18.1359 15.911 18.136 15.9303C18.1362 16.6431 17.854 17.327 17.3511 17.8322C16.8483 18.3375 16.1657 18.623 15.4529 18.6262Z" fill="white"/>
</svg>
