<svg width="61" height="55" viewBox="0 0 61 55" fill="none" xmlns="http://www.w3.org/2000/svg">
<path fill-rule="evenodd" clip-rule="evenodd" d="M50.1697 0.849637C43.9025 5.74357 38.3827 8.19799 31.3998 9.19604C28.7239 9.57855 27.1018 9.62657 16.7472 9.62982C5.10101 9.63355 5.33879 9.61899 3.70282 10.4297C1.95237 11.2973 0.608977 13.0849 0.189054 15.1055C-0.0630181 16.3186 -0.0630181 24.2435 0.189054 25.4566C0.608977 27.4771 1.95237 29.2648 3.70282 30.1323C5.00547 30.7779 5.89738 30.9285 8.43275 30.9311L10.6013 30.9331L10.6686 31.3243C10.7056 31.5395 11.2704 36.2304 11.9238 41.7486C12.5771 47.2669 13.1644 51.9799 13.2289 52.222C13.5073 53.2664 14.2951 54.1373 15.4434 54.6696C15.9838 54.9202 16.2369 54.9462 18.5081 54.9847C20.7471 55.0226 21.0618 55.0028 21.8002 54.7761C23.1757 54.354 24.1158 53.2928 24.4314 51.8061C24.5423 51.2835 24.4015 49.8782 23.3633 41.1419C22.7056 35.6076 22.1675 31.0466 22.1675 31.0064C22.1675 30.8868 27.1117 30.9255 28.6599 31.0572C36.6539 31.737 43.303 34.3211 49.388 39.1129C49.7811 39.4225 50.3615 39.8752 50.6778 40.1189L51.2527 40.5621H52.4728C54.0774 40.5621 54.7874 40.3487 55.4666 39.6625C56.3406 38.7795 56.3569 38.6512 56.3569 32.6635V27.4567L57.1015 27.0641C58.1928 26.4885 59.6561 24.9657 60.2135 23.8253C60.8362 22.5519 61 21.8132 61 20.281C61 18.7488 60.8362 18.0102 60.2135 16.7367C59.6561 15.5964 58.1928 14.0736 57.1015 13.498L56.3569 13.1054V7.89853C56.3569 1.91087 56.3406 1.78256 55.4666 0.899587C54.7878 0.213643 54.0772 0 52.4754 0L51.2578 0L50.1697 0.849637ZM54.0561 2.30783L54.3318 2.56961V20.2642V37.9588L54.0728 38.2374C53.8649 38.4609 53.6885 38.5159 53.1793 38.5159H52.5448V28.7573V18.9987L52.1966 18.6469C51.7448 18.1903 51.3197 18.1903 50.8679 18.6469L50.5197 18.9987V28.2262V37.4535L50.0134 37.0682C49.0242 36.3153 46.1545 34.439 45.0399 33.8163C40.6222 31.3481 35.433 29.7328 30.2357 29.2083L28.779 29.0612L28.7195 22.5242L28.6599 15.9872L28.3256 15.6968C27.8786 15.3083 27.4684 15.3279 27.0425 15.7582L26.6943 16.11V22.501V28.892L16.1218 28.8594L5.54929 28.8268L4.77461 28.4558C3.78228 27.9806 2.93207 27.1216 2.46176 26.119L2.09461 25.3363V20.281L2.09461 15.2258L2.46176 14.4431C2.93207 13.4405 3.78228 12.5815 4.77461 12.1063L5.54929 11.7353L16.1218 11.7027L26.6943 11.6701V12.2837C26.6943 12.8014 26.7488 12.9523 27.0425 13.2491C27.4683 13.6793 27.8786 13.699 28.3252 13.3109C28.6077 13.0653 28.6681 12.9043 28.719 12.2605L28.779 11.5L30.2357 11.3534C35.4274 10.8309 40.6216 9.21433 45.0399 6.74582C46.1545 6.12307 49.0242 4.24674 50.0134 3.49388L50.5197 3.1086V6.55854V10.0086L50.8679 10.3604C51.0778 10.5725 51.3417 10.7122 51.5323 10.7122C51.7229 10.7122 51.9867 10.5725 52.1966 10.3604L52.5448 10.0086V6.02738V2.04616H53.1626C53.6328 2.04616 53.8462 2.10863 54.0561 2.30783ZM50.8679 12.8695C50.5266 13.2143 50.5197 13.2468 50.5197 14.5037C50.5197 15.7605 50.5266 15.793 50.8679 16.1378C51.0778 16.3499 51.3417 16.4896 51.5323 16.4896C51.7229 16.4896 51.9867 16.3499 52.1966 16.1378C52.5379 15.793 52.5448 15.7605 52.5448 14.5037C52.5448 13.2468 52.5379 13.2143 52.1966 12.8695C51.9867 12.6574 51.7229 12.5177 51.5323 12.5177C51.3417 12.5177 51.0778 12.6574 50.8679 12.8695ZM57.3559 16.114C57.9009 16.6141 58.6031 17.7882 58.8604 18.63C59.5638 20.9311 58.5979 23.7471 56.6845 24.9735L56.3569 25.1834V20.281V15.3787L56.6845 15.5886C56.8646 15.7041 57.1669 15.9405 57.3559 16.114ZM20.1989 31.3243C20.4564 32.8201 22.5295 50.9545 22.4887 51.3536C22.4252 51.974 22.0611 52.5077 21.5265 52.764C21.1928 52.924 20.6883 52.9594 18.7422 52.9594C16.4736 52.9594 16.3475 52.9471 15.9717 52.6886C15.4985 52.3632 15.1775 51.9337 15.0719 51.485L14.994 51.154H17.22H19.4459L19.7941 50.8021C20.246 50.3456 20.246 49.9161 19.7941 49.4596L19.4459 49.1078H17.1243H14.8026L14.7324 48.6564C14.6624 48.2052 12.6373 31.1461 12.6373 31.0069C12.6373 30.9663 14.3236 30.9331 16.3845 30.9331H20.1315L20.1989 31.3243Z" fill="#2FD4C7"/>
</svg>
