<svg width="55" height="70" viewBox="0 0 55 70" fill="none" xmlns="http://www.w3.org/2000/svg">
<path fill-rule="evenodd" clip-rule="evenodd" d="M28.0453 0.36073L27.644 0.72146L27.5825 22.6437L27.5211 44.5658L27.2478 45.3694C26.2431 48.3243 23.8423 50.2844 20.7148 50.7033C19.2727 50.8964 17.9045 50.6486 16.4095 49.9233C14.4982 48.9961 12.9393 47.0556 12.4074 44.9417C12.165 43.978 12.1695 42.0862 12.4167 41.1222C12.9261 39.136 14.5941 37.0748 16.4159 36.1804C18.0929 35.3571 19.9128 35.1534 21.7144 35.5872C22.8526 35.8611 23.1854 35.8159 23.5901 35.3319L23.896 34.9662V29.5267V24.0873L23.5482 23.7375C23.0932 23.2797 22.3629 23.1766 19.6565 23.188C17.4946 23.197 16.3562 23.3448 14.4398 23.865C13.1603 24.2123 12.7859 24.5591 12.8709 25.3181C12.9367 25.9049 13.3206 26.4175 13.7425 26.4819C13.8862 26.5038 14.607 26.3698 15.3442 26.1841C17.0241 25.7612 18.7028 25.5642 20.2095 25.6134L21.3769 25.6516L21.4093 29.2985L21.4418 32.9453L19.8118 32.9502C17.8711 32.9559 16.8207 33.2076 15.1796 34.0603C12.5949 35.4033 10.7589 37.7248 9.99936 40.6099C9.64435 41.9586 9.63993 44.1717 9.98966 45.5045C10.8312 48.7119 13.1667 51.3784 16.1366 52.5227C17.5131 53.053 18.3818 53.2049 19.9637 53.1922C24.5334 53.1552 28.3024 50.2647 29.6954 45.7291L29.9767 44.8131L30.0109 23.6428L30.045 2.47245H33.7033H37.3616L37.5627 3.73957C38.1301 7.3151 39.7464 10.4013 42.3958 12.9685C44.9687 15.4616 48.0744 17.0024 51.4333 17.4523L52.5281 17.5989V21.2853C52.5281 23.3128 52.4982 24.9717 52.4619 24.9717C51.9218 24.9717 49.6909 24.6398 48.6102 24.3987C45.6834 23.7456 43.0779 22.6124 40.4339 20.8424C38.6509 19.6487 38.379 19.5776 37.7532 20.1407L37.3519 20.5016L37.3488 32.5956C37.3463 41.9071 37.3091 44.9103 37.1865 45.6491C36.9944 46.8077 36.5758 48.3435 36.1385 49.4945C35.7289 50.5724 35.722 51.0966 36.1124 51.4893C36.5311 51.9105 36.9846 51.996 37.4964 51.7504C38.0039 51.507 38.4313 50.6495 38.9924 48.7497C39.7928 46.0392 39.7911 46.0714 39.7568 34.1421L39.726 23.3474L40.2079 23.6535C40.9387 24.1176 43.0737 25.1754 44.1427 25.603C46.2432 26.4433 48.8615 27.0714 51.2815 27.3157C53.7733 27.5672 54.5296 27.4507 54.8389 26.7677C55.0697 26.2582 55.0453 16.4534 54.8119 15.8914C54.5681 15.3046 54.2742 15.1892 52.7226 15.0709C48.2194 14.7279 44.3267 12.3533 41.9044 8.47196C40.7255 6.58301 40.1102 4.74079 39.8683 2.37565C39.6824 0.557784 39.6704 0.518596 39.2225 0.243907C38.8454 0.0124859 38.5791 0.00086535 33.6366 0.000494483L28.4467 0L28.0453 0.36073ZM8.89033 26.3934C8.18522 26.7788 8.13803 27.8079 8.79964 28.368C9.38789 28.8659 10.2289 28.7124 10.5723 28.0443C10.8018 27.5978 10.7934 27.2517 10.5428 26.8248C10.1936 26.2303 9.51336 26.0527 8.89033 26.3934ZM4.59884 30.2681C3.31838 31.6043 1.69102 34.506 0.930365 36.8087C0.171062 39.1071 0.00627363 40.2187 0.000375178 43.0824C-0.00429443 45.3463 0.0315879 45.8505 0.281043 47.0232C2.00462 55.1241 8.24285 61.2357 16.3386 62.755C18.1965 63.1036 21.7558 63.0761 23.6291 62.6986C26.0954 62.2017 28.5856 61.2092 30.563 59.9353C31.5565 59.2952 31.8509 58.8143 31.641 58.1746C31.2977 57.1278 30.432 57.0099 29.18 57.8395C27.5499 58.9198 25.5143 59.7365 23.2329 60.2257C21.5751 60.5812 18.3521 60.6092 16.7117 60.2822C11.2457 59.1926 6.79282 55.8735 4.30121 51.0315C3.05344 48.6067 2.53597 46.5956 2.43066 43.7623C2.37549 42.2776 2.40707 41.5401 2.5705 40.4863C3.00195 37.7065 4.19676 34.8432 5.84611 32.6362C6.3288 31.9904 6.77905 31.3409 6.84652 31.1929C7.15299 30.5207 6.4947 29.6694 5.66855 29.6694C5.23624 29.6694 5.09861 29.7464 4.59884 30.2681ZM33.4938 54.0891C32.9811 54.6764 32.9734 55.2619 33.4715 55.7632C34.1126 56.4081 35.1558 56.1894 35.5104 55.3357C35.8605 54.4927 35.3053 53.6521 34.3986 53.6521C33.9532 53.6521 33.8182 53.7172 33.4938 54.0891Z" fill="#2FD4C7"/>
</svg>
