<svg width="59" height="70" viewBox="0 0 59 70" fill="none" xmlns="http://www.w3.org/2000/svg">
<path fill-rule="evenodd" clip-rule="evenodd" d="M10.3784 0.365278C10.2205 0.566147 10.0912 0.92075 10.0912 1.15323C10.0912 2.3199 8.9631 3.47326 7.62884 3.67066C6.84561 3.78656 6.48884 4.06935 6.48884 4.57464C6.48884 5.07993 6.84561 5.36273 7.62884 5.47862C8.94661 5.67366 10.0912 6.84657 10.0912 8.00216C10.0912 8.52866 10.5696 9.14928 10.9757 9.14928C11.4476 9.14928 11.8924 8.65647 11.8924 8.13357C11.8924 6.94625 13.1107 5.65121 14.3938 5.47474C16.0595 5.24545 16.0595 3.90383 14.3938 3.67455C13.1107 3.49808 11.8924 2.20304 11.8924 1.01571C11.8924 0.492814 11.4476 0 10.9757 0C10.8051 0 10.5362 0.16441 10.3784 0.365278ZM53.924 0.201977C53.7326 0.336167 53.6058 0.623399 53.5464 1.05716C53.4377 1.84968 52.9108 2.78859 52.3505 3.18769C52.1229 3.34988 51.5465 3.56184 51.0693 3.65902C50.3706 3.80111 50.1615 3.9073 49.9942 4.20507C49.8095 4.53361 49.8095 4.61567 49.9942 4.94422C50.1615 5.24198 50.3706 5.34817 51.0693 5.49026C52.5042 5.78221 53.2361 6.53883 53.5349 8.03848C53.6543 8.63762 53.7671 8.84763 54.0575 9.01066C54.3867 9.19544 54.469 9.19544 54.7982 9.01066C55.0886 8.84763 55.2014 8.63762 55.3208 8.03848C55.6195 6.53883 56.3515 5.78221 57.7863 5.49026C58.485 5.34817 58.6941 5.24198 58.8615 4.94422C59.0462 4.61567 59.0462 4.53361 58.8615 4.20507C58.6941 3.9073 58.485 3.80111 57.7863 3.65902C57.3091 3.56184 56.7328 3.34988 56.5051 3.18769C55.9448 2.78859 55.4179 1.84968 55.3093 1.05716C55.1807 0.11797 54.5764 -0.255071 53.924 0.201977ZM40.9094 1.9323C40.2341 2.09394 39.6269 2.51494 39.2186 3.10438C38.9 3.56434 38.841 3.79307 38.8422 4.56286C38.844 5.63374 39.1173 6.19462 39.9024 6.739C41.7532 8.02226 44.1689 6.79681 44.1689 4.57464C44.1689 3.28681 43.3401 2.23936 42.0939 1.95199C41.7525 1.87325 41.442 1.81378 41.4039 1.81974C41.3658 1.8257 41.1433 1.8763 40.9094 1.9323ZM11.4825 5.05387L11.0133 5.53823L10.5472 5.05803L10.0809 4.57783L10.5364 4.09611L10.9918 3.61438L11.4717 4.09195L11.9518 4.56937L11.4825 5.05387ZM42.1045 3.85989C42.7681 4.39762 42.3278 5.54502 41.4578 5.54502C41.0013 5.54502 40.5726 5.07508 40.5726 4.57464C40.5726 3.74386 41.4537 3.3327 42.1045 3.85989ZM54.885 4.08945L55.37 4.57464L54.8989 5.04597L54.4278 5.51729L53.9558 5.045L53.4837 4.5727L53.9211 4.10609C54.1617 3.84949 54.3678 3.63157 54.3793 3.62187C54.3908 3.61216 54.6183 3.8226 54.885 4.08945ZM24.3877 3.83771C24.1356 3.93863 23.9487 4.48412 24.0428 4.84413C24.0921 5.03308 24.4184 5.29355 24.9283 5.55112C26.0655 6.12544 26.647 6.6848 27.1324 7.6714C27.6522 8.72772 27.8754 10.0226 27.7584 11.303C27.6802 12.1579 27.7023 12.3081 27.9364 12.5202C28.3674 12.9105 28.7812 12.9193 29.154 12.5463C29.4657 12.2344 29.4885 12.1112 29.4885 10.7352C29.4885 7.58004 28.2961 5.30603 26.046 4.16958C25.2434 3.76424 24.7953 3.67455 24.3877 3.83771ZM35.4341 7.60624C35.1885 7.80531 35.1158 8.06953 35.0196 9.11144C34.888 10.5384 34.6599 11.6085 34.1312 13.2802C33.7578 14.4603 32.4675 17.5869 32.2716 17.7858C32.2114 17.8469 31.5237 17.4193 30.7432 16.8354C26.229 13.458 22.9302 12.2488 21.2752 13.3647C20.7873 13.6937 20.8323 13.6154 19.6383 16.2192C18.6993 18.2671 18.4564 18.7853 15.806 24.3981C14.8159 26.4948 13.835 28.5846 13.6261 29.042C13.4171 29.4995 12.9168 30.56 12.5142 31.3987C12.1116 32.2374 11.5494 33.4226 11.265 34.0326C10.7997 35.0298 8.13663 40.6755 6.52403 44.0829C6.18111 44.8072 5.69798 45.8365 5.45025 46.3702C5.20238 46.9039 4.4233 48.557 3.71877 50.0438C-0.267374 58.4563 -0.089612 58.0469 0.0593314 58.471C0.307894 59.1781 0.775645 59.1767 2.29057 58.4645C3.03737 58.1133 4.24083 57.5487 4.96476 57.2098C5.6887 56.8708 8.02676 55.7667 10.1605 54.7561C12.2942 53.7454 14.4764 52.7157 15.0098 52.4677C15.5432 52.2197 17.2578 51.41 18.82 50.6682C21.2442 49.517 25.0444 47.727 29.5577 45.6101C30.1674 45.3243 32.4743 44.2323 34.6842 43.1836C36.8941 42.1349 39.0763 41.1041 39.5335 40.8929C39.9907 40.6817 41.1753 40.1218 42.166 39.6488C43.1566 39.176 44.2135 38.6997 44.5144 38.5904C45.5849 38.2023 46.0267 37.5096 46.0174 36.2345C46.0107 35.3007 45.4957 33.5679 44.951 32.6463C44.7709 32.3413 44.4159 31.6945 44.1622 31.2089C43.9087 30.7233 43.5304 30.1431 43.3219 29.9198C43.1132 29.6964 42.9489 29.4784 42.9567 29.4356C42.9644 29.3928 42.6102 28.8586 42.1693 28.2488C41.5958 27.4556 41.4167 27.1097 41.5397 27.0338C41.8474 26.8433 44.7163 26.1952 46.1603 25.9899C46.9353 25.8796 48.3599 25.7882 49.3259 25.7868C51.0571 25.7843 51.0866 25.7791 51.3696 25.4191C51.7453 24.9412 51.7319 24.7379 51.2956 24.3013L50.9345 23.9401L48.8363 24.0271C46.3809 24.1289 43.9095 24.5204 41.6841 25.1598L40.0938 25.6167L39.3193 24.7649C38.8934 24.2963 38.3081 23.648 38.0188 23.3242L37.4929 22.7353L37.8204 22.4547C38.0005 22.3004 38.6558 21.7987 39.2763 21.3399C39.8969 20.881 40.4382 20.3771 40.4792 20.2199C40.588 19.8039 40.2997 19.2753 39.9108 19.1776C39.4386 19.0591 38.8694 19.3657 37.4559 20.5005L36.2362 21.4795L35.7373 21.0456C35.463 20.8069 34.8737 20.2759 34.428 19.8656L33.6177 19.1196L34.3839 17.4269C35.7952 14.3084 36.6226 11.4729 36.7791 9.21859C36.8575 8.08713 36.84 7.94795 36.5905 7.72407C36.1967 7.37058 35.7778 7.32788 35.4341 7.60624ZM48.1237 7.61941C46.6772 8.13995 44.7992 9.37746 43.309 10.7919C42.66 11.4079 42.5124 11.631 42.5124 11.9953C42.5124 12.5283 42.7946 12.7997 43.3489 12.7997C43.6506 12.7997 43.9608 12.6055 44.5539 12.0452C45.7328 10.9315 46.6911 10.2709 48.252 9.49585C49.6034 8.82476 49.6492 8.78692 49.6895 8.30561C49.7581 7.48605 49.1882 7.23639 48.1237 7.61941ZM53.5272 11.2739C52.8619 11.5343 52.4924 11.8203 52.1866 12.3115C51.0251 14.1771 52.2657 16.4903 54.4278 16.4903C56.5341 16.4903 57.7557 14.3418 56.7494 12.407C56.2113 11.3723 54.6649 10.8285 53.5272 11.2739ZM5.65752 13.052C4.51045 13.3853 3.72389 14.4481 3.72389 15.6647C3.72389 18.388 7.15513 19.356 8.71814 17.0735C8.98873 16.6784 9.05205 16.411 9.05205 15.663C9.05205 14.8806 8.99372 14.6556 8.66909 14.1871C8.00723 13.2315 6.71537 12.7445 5.65752 13.052ZM55.1206 13.1694C55.7148 13.764 55.2842 14.7405 54.4278 14.7405C54.2011 14.7405 53.8902 14.6269 53.7369 14.488C53.1329 13.9411 53.5871 12.8922 54.4278 12.8922C54.6588 12.8922 54.9666 13.0154 55.1206 13.1694ZM7.04304 14.9716C7.60903 15.5378 7.20792 16.6351 6.43494 16.6351C5.91066 16.6351 5.47283 16.1934 5.47283 15.6647C5.47283 14.8245 6.46029 14.3885 7.04304 14.9716ZM25.0026 15.3374C26.239 15.8689 28.7759 17.4861 30.5017 18.8431L31.4329 19.5752L31.1735 20.0113C29.6878 22.5086 29.4483 23.0211 29.605 23.3653C29.691 23.5544 29.9158 23.7794 30.1042 23.8653C30.6404 24.1097 31.0506 23.7346 31.948 22.1795C32.386 21.4205 32.7756 20.8012 32.8137 20.8032C32.8518 20.8053 33.3456 21.236 33.911 21.7602L34.9391 22.7132L34.0842 23.7219C33.1677 24.8033 33.0515 25.1905 33.5065 25.6457C34.0073 26.1468 34.3792 26.0048 35.3481 24.9427L36.2422 23.9625L37.0425 24.8689C37.4826 25.3674 37.9115 25.7361 37.9954 25.6883C38.0792 25.6404 38.1011 25.6529 38.0438 25.7163C37.9864 25.7795 38.0391 25.9411 38.1606 26.0756C38.3669 26.3035 38.3412 26.3404 37.7798 26.6229C37.449 26.7894 37.0846 27.0036 36.9703 27.0988C36.856 27.194 36.5953 27.3117 36.391 27.3601C35.9465 27.4657 35.0305 28.2954 35.0305 28.5925C35.0305 28.9001 35.47 29.386 35.805 29.4486C35.9642 29.4784 36.3383 29.3577 36.6364 29.1805C37.2431 28.8197 39.4098 27.7251 39.5173 27.7251C39.5554 27.7251 39.8843 28.1151 40.2481 28.5915C40.612 29.0681 40.9585 29.4787 41.0182 29.5041C41.0779 29.5296 41.1268 29.6171 41.1268 29.6984C41.1268 29.7799 41.3175 30.1022 41.5504 30.4147C43.0977 32.4899 44.3106 35.0689 44.3127 36.2881C44.315 37.6393 41.7837 36.8833 38.1753 34.4549C37.2634 33.8414 36.4177 33.2771 36.2957 33.2008C36.1737 33.1246 35.9915 32.9531 35.8908 32.8196C35.7899 32.6861 35.6488 32.577 35.5769 32.577C35.4346 32.577 35.361 32.5178 34.13 31.4128C33.6727 31.0025 33.0493 30.4563 32.7444 30.1993C31.7149 29.3311 28.0421 25.4397 26.8071 23.9087C23.707 20.0655 21.6924 16.2325 22.1456 15.0399C22.2856 14.6717 22.321 14.6594 23.0329 14.7328C23.4407 14.775 24.3271 15.047 25.0026 15.3374ZM45.4912 16.7228C43.8959 16.9687 43.2277 17.4014 43.3974 18.0781C43.5371 18.6347 44.0044 18.7621 45.1992 18.5693C45.8366 18.4664 46.8475 18.4278 47.7265 18.4725C49.0391 18.5396 49.2185 18.5201 49.4541 18.2844C49.5987 18.1397 49.7171 17.8356 49.7171 17.6086C49.7171 16.9249 49.2668 16.743 47.4617 16.6977C46.6066 16.6764 45.7198 16.6876 45.4912 16.7228ZM23.7578 22.827C25.6517 25.4676 30.4815 30.7749 30.9906 30.7749C31.1043 30.7749 31.1555 30.8166 31.1045 30.8676C30.9974 30.9748 31.4067 31.468 31.6029 31.468C31.6754 31.468 31.8531 31.6187 31.9981 31.8029C32.418 32.3372 36.0837 35.2331 37.5245 36.1689C38.2484 36.639 39.3628 37.2849 40.0008 37.604L41.1609 38.1843L40.1369 38.6729C39.5737 38.9417 38.4905 39.455 37.7298 39.8134C35.3058 40.9558 33.2145 41.9463 31.2285 42.8929C30.1663 43.3993 29.1687 43.8428 29.0117 43.8784C28.7723 43.9328 28.6508 43.7817 28.2558 42.9387C26.0561 38.2437 25.5216 37.0533 24.8341 35.3198C22.3345 29.0176 21.1185 23.5773 21.293 19.4769L21.3167 18.9224L22.1312 20.3086C22.5792 21.0711 23.3111 22.2043 23.7578 22.827ZM20.0006 25.2992C20.9282 30.3021 22.9578 35.9718 26.2857 42.8554C26.7518 43.8194 27.1303 44.6615 27.1268 44.7268C27.1234 44.792 25.9856 45.3734 24.5983 46.0185C23.211 46.6638 21.2342 47.5915 20.2055 48.0799C18.1869 49.0384 16.6024 49.7666 16.5355 49.7666C16.5127 49.7666 16.2324 49.0993 15.9126 48.284C15.2736 46.654 14.6556 44.4164 14.312 42.4887C14.0032 40.7562 13.8936 37.009 14.0992 35.2109C14.4987 31.7181 14.937 30.3152 16.958 26.0616C17.8455 24.1936 18.7641 22.2598 18.9992 21.7642L19.427 20.8631L19.5981 22.4573C19.6921 23.3341 19.8734 24.613 20.0006 25.2992ZM5.79608 22.4573C5.63466 22.6188 5.51773 22.9227 5.51592 23.1851C5.51191 23.7784 5.09791 24.6525 4.59926 25.1205C4.18042 25.5136 3.20515 25.923 2.68766 25.923C2.19428 25.923 1.87048 26.2526 1.87048 26.7547C1.87048 27.2504 2.19289 27.5859 2.67048 27.5873C4.07886 27.591 5.50678 28.9645 5.51592 30.3243C5.52174 31.1832 6.43979 31.6425 6.9728 31.0532C7.11024 30.9013 7.27332 30.4564 7.33511 30.0647C7.53671 28.7889 8.49271 27.8496 9.78402 27.6586C10.5659 27.5428 10.9225 27.2597 10.9225 26.7547C10.9225 26.2597 10.5728 25.975 9.81408 25.8524C9.0206 25.724 8.60826 25.5076 8.056 24.9297C7.56164 24.4124 7.32015 23.877 7.32015 23.2988C7.32015 22.7785 6.833 22.1801 6.40945 22.1801C6.22448 22.1801 5.94848 22.3048 5.79608 22.4573ZM6.85586 27.2284L6.38243 27.7022L5.92354 27.2284L5.46466 26.7547L5.92354 26.281L6.38243 25.8072L6.85586 26.281L7.32943 26.7547L6.85586 27.2284ZM55.2601 27.9375C53.7901 28.6011 53.1882 30.2592 53.8904 31.7106C54.6947 33.373 57.1251 33.6239 58.3472 32.1707C59.3848 30.9369 59.1082 29.0911 57.751 28.1925C57.0793 27.7477 55.9391 27.631 55.2601 27.9375ZM56.9454 29.7567C57.2219 30.0069 57.2789 30.6434 57.0614 31.0499C56.8649 31.4174 56.1554 31.5424 55.7554 31.2803C55.1993 30.9157 55.1853 29.9974 55.7302 29.6333C56.0018 29.4518 56.6855 29.5213 56.9454 29.7567ZM48.2969 31.7066C47.7371 32.3265 48.1509 32.9796 49.3183 33.3186C50.288 33.6002 51.6424 34.4924 52.2775 35.2678C52.7642 35.862 53.3326 37.0113 53.5174 37.7754C53.728 38.6453 54.5315 38.9739 55.049 38.4018C55.6662 37.7194 54.6272 35.128 53.1398 33.6398C51.5924 32.0915 48.9146 31.0226 48.2969 31.7066ZM12.2558 38.5734C12.285 42.202 13.0872 46.1239 14.4725 49.4101C14.8112 50.2139 14.893 50.542 14.7727 50.6165C14.1136 51.024 3.00301 56.1674 2.9329 56.0974C2.88413 56.0485 3.1755 55.3059 3.58063 54.4471C3.98576 53.5883 4.82898 51.7939 5.45468 50.4597C6.08038 49.1254 7.00536 47.1693 7.51038 46.1125C8.0154 45.0559 8.42856 44.1751 8.42856 44.1551C8.42856 44.1353 8.84159 43.2531 9.34633 42.1948C10.9508 38.8309 11.6388 37.3722 11.8394 36.909C11.9468 36.6612 12.0805 36.4589 12.1366 36.4593C12.1929 36.4598 12.2464 37.411 12.2558 38.5734ZM52.9037 47.4099C52.7484 47.5653 52.6266 47.872 52.6266 48.1075C52.6266 48.9751 51.9168 50.1011 51.1008 50.5279C50.9093 50.6281 50.46 50.754 50.1025 50.8076C49.2429 50.9366 48.9782 51.1485 48.9782 51.7073C48.9782 52.203 49.3006 52.5385 49.7782 52.5399C51.1865 52.5436 52.6145 53.9171 52.6236 55.2769C52.6291 56.0974 53.5421 56.5939 54.0713 56.0643C54.2858 55.8497 54.3308 55.7098 54.4904 54.7621C54.6656 53.722 55.7324 52.7659 56.9061 52.597C57.6776 52.4861 58.0302 52.2069 58.0302 51.7073C58.0302 51.2023 57.6735 50.9192 56.8917 50.8035C55.7073 50.6282 54.6661 49.6956 54.4904 48.6526C54.3308 47.7048 54.2858 47.5649 54.0713 47.3503C53.7716 47.0503 53.2357 47.0778 52.9037 47.4099ZM34.8227 48.3334C34.1797 48.6725 33.7706 49.0916 33.4912 49.6972C32.3202 52.236 35.522 54.667 37.6629 52.8646C39.1248 51.6337 38.8801 49.2047 37.2127 48.3971C36.488 48.0461 35.4214 48.0177 34.8227 48.3334ZM36.5079 49.9713C37.0332 50.3393 37.0283 51.2478 36.4992 51.6013C36.2276 51.7827 35.5439 51.7133 35.284 51.4779C34.9919 51.2134 34.9473 50.4791 35.2037 50.1555C35.5299 49.7441 36.0741 49.6672 36.5079 49.9713ZM54.0147 52.1899C53.7547 52.4582 53.5076 52.6733 53.4654 52.6677C53.4232 52.6622 53.2081 52.4405 52.9876 52.1752L52.5865 51.6926L53.052 51.2121L53.5174 50.7317L54.0023 51.2169L54.4873 51.702L54.0147 52.1899Z" fill="#2FD4C7"/>
</svg>
