<svg width="68" height="70" viewBox="0 0 68 70" fill="none" xmlns="http://www.w3.org/2000/svg">
<path fill-rule="evenodd" clip-rule="evenodd" d="M8.86684 0.271848C8.51482 0.65922 8.54779 1.37399 8.93336 1.7161C9.09868 1.86292 9.15647 1.94563 9.06169 1.89991C8.96691 1.8543 9.06559 2.00365 9.2809 2.23179C9.49632 2.45994 9.7161 2.61974 9.76918 2.58688C9.82237 2.55403 9.86592 2.57609 9.86592 2.63594C9.86592 2.8858 10.6533 2.68568 10.9563 2.35874C11.3493 1.93472 11.2931 1.36779 10.8175 0.960087C10.6416 0.809366 10.5754 0.721829 10.6701 0.765483C10.7649 0.809251 10.6392 0.657841 10.3907 0.429232C9.83811 -0.0795655 9.24207 -0.141141 8.86684 0.271848ZM25.3879 0.197177C24.9839 0.285519 24.4977 0.435436 24.3076 0.530211C24.1175 0.625101 23.8924 0.702644 23.8073 0.702644C23.7223 0.702644 23.6527 0.757441 23.6527 0.8243C23.6527 0.89116 23.601 0.914021 23.5378 0.874962C23.4746 0.835903 23.4229 0.861751 23.4229 0.932401C23.4229 1.00305 23.3743 1.03085 23.3149 0.994091C23.2555 0.95733 23.0289 1.08358 22.8114 1.27451C22.5939 1.46544 22.3711 1.62167 22.3163 1.62167C22.2615 1.62167 22.0712 1.80376 21.8937 2.02628C21.7156 2.24937 21.5144 2.39596 21.4451 2.35311C21.3744 2.30945 21.3518 2.32795 21.3936 2.3955C21.4344 2.46155 21.339 2.59998 21.1815 2.70314C21.0241 2.8063 20.8953 2.95898 20.8953 3.04249C20.8953 3.12601 20.7919 3.28799 20.6655 3.40229C20.5391 3.5166 20.4357 3.67973 20.4357 3.76474C20.4357 3.84975 20.3904 3.91925 20.3348 3.91925C20.2387 3.91925 19.9367 4.52857 19.9667 4.66228C19.9745 4.69721 19.9045 4.87343 19.8112 5.05379C19.4787 5.69677 19.2681 7.08714 19.352 8.08625C19.388 8.51417 19.3751 8.85249 19.3234 8.83813C19.0162 8.75254 16.9656 9.63286 16.7323 9.95038C16.6859 10.0136 16.6472 10.0268 16.6461 9.97991C16.6452 9.93292 16.511 10.0105 16.348 10.1522C16.185 10.2939 16.0062 10.4099 15.9508 10.4099C15.8954 10.4099 15.7745 10.5133 15.6821 10.6397C15.5896 10.766 15.4702 10.8694 15.4166 10.8694C15.363 10.8694 15.0099 11.1761 14.6319 11.5509C14.2538 11.9257 14.022 12.1932 14.1168 12.1453C14.2116 12.0974 14.1728 12.1609 14.0307 12.2863C13.8885 12.4119 13.7722 12.5654 13.7722 12.6274C13.7722 12.6896 13.6913 12.7713 13.5926 12.8093C13.4938 12.8472 13.4451 12.9302 13.4845 12.9939C13.5238 13.0575 13.5134 13.1095 13.4615 13.1095C13.3635 13.1095 13.2238 13.3437 12.9132 14.0286C12.8129 14.2497 12.6553 14.5672 12.5629 14.7343C12.2163 15.3609 11.9176 17.0062 11.9219 18.2662C11.924 18.9368 11.9541 19.6404 11.9888 19.83C12.1441 20.6791 12.3198 21.3097 12.5107 21.7021C12.6242 21.9353 12.6929 22.1653 12.6634 22.213C12.6338 22.2608 12.6645 22.2998 12.7314 22.2998C13.0133 22.2998 12.8125 22.6796 12.2245 23.2582C11.8789 23.5983 11.629 23.9095 11.6692 23.9499C11.7095 23.9901 11.6845 24.023 11.6138 24.023C11.5431 24.023 11.3992 24.204 11.2943 24.4251C11.1894 24.6462 11.049 24.8272 10.9825 24.8272C10.916 24.8272 10.8936 24.8592 10.9328 24.8983C10.9718 24.9375 10.9283 25.045 10.8359 25.1374C10.7436 25.2297 10.6974 25.3527 10.7333 25.4109C10.7692 25.4689 10.7542 25.5165 10.7 25.5165C10.5943 25.5165 10.3821 26.0464 10.263 26.6078C9.94289 28.1165 9.94576 28.896 10.2773 30.5137C10.3791 31.0104 10.9124 32.1794 11.0373 32.1794C11.0956 32.1794 11.1113 32.2311 11.0723 32.2943C11.0332 32.3575 11.0561 32.4092 11.1229 32.4092C11.1898 32.4092 11.2446 32.4883 11.2446 32.5851C11.2446 32.6819 11.3221 32.7908 11.4169 32.8271C11.5117 32.8635 11.5893 32.9593 11.5893 33.0401C11.5893 33.1208 11.7182 33.2713 11.8758 33.3746C12.0333 33.4779 12.1497 33.626 12.1343 33.7037C12.1189 33.7815 12.1681 33.8332 12.2436 33.8185C12.319 33.8039 12.491 33.9467 12.6257 34.1358C12.7604 34.3249 12.9184 34.4502 12.9767 34.4142C13.035 34.3781 13.0828 34.5121 13.0828 34.7122C13.0828 34.912 13.1655 35.3933 13.2665 35.7816C13.3675 36.1697 13.4676 36.5756 13.4887 36.6835C13.5785 37.1402 14.1889 38.2613 14.4328 38.4173C14.5118 38.4679 14.5764 38.5537 14.5764 38.6082C14.5764 38.7514 15.8078 39.9912 15.95 39.9912C16.0159 39.9912 16.0699 40.0429 16.0699 40.1061C16.0699 40.1692 16.1431 40.2209 16.2327 40.2209C16.3222 40.2209 16.4127 40.2596 16.4338 40.3071C16.4773 40.4051 17.5618 40.9456 18.0805 41.1278C18.5653 41.298 18.9973 41.3751 19.8874 41.45C20.3125 41.4859 20.6326 41.56 20.5987 41.6148C20.5648 41.6696 20.5935 41.7144 20.6623 41.7144C20.7312 41.7144 20.8188 41.7957 20.8569 41.8951C20.9277 42.0793 22.2479 43.4375 22.3564 43.4375C22.3891 43.4375 22.5939 43.5938 22.8114 43.7847C23.0289 43.9756 23.2555 44.1019 23.3149 44.0651C23.3743 44.0284 23.4229 44.0562 23.4229 44.1268C23.4229 44.1975 23.4746 44.2233 23.5378 44.1842C23.601 44.1452 23.6527 44.1681 23.6527 44.2349C23.6527 44.3018 23.7457 44.3566 23.8595 44.3566C23.9732 44.3566 24.1283 44.4186 24.2041 44.4944C24.28 44.5702 24.342 44.5898 24.342 44.5378C24.342 44.4858 24.411 44.5006 24.4954 44.5706C24.7099 44.7486 26.3412 45.046 27.0993 45.0451C27.6662 45.0446 28.3136 44.9608 29.3397 44.7554C29.5293 44.7175 29.917 44.5783 30.2014 44.4462C30.4857 44.3141 30.7571 44.214 30.8045 44.2238C30.852 44.2336 30.8907 44.19 30.8907 44.1268C30.8907 44.0636 30.9682 44.0119 31.063 44.0119C31.1578 44.0119 31.2354 43.9571 31.2354 43.8903C31.2354 43.8234 31.2871 43.8006 31.3503 43.8396C31.4134 43.8787 31.4651 43.8558 31.4651 43.7889C31.4651 43.7221 31.5372 43.6673 31.6252 43.6673C31.7132 43.6673 31.815 43.5898 31.8514 43.495C31.8877 43.4002 31.9673 43.3227 32.0283 43.3227C32.1452 43.3227 33.3597 42.1798 33.3624 42.0672C33.3633 42.0311 33.489 41.8593 33.6417 41.6856C33.9471 41.338 34.2225 41.2716 34.2225 41.5456C34.2225 41.6424 34.3 41.7513 34.3948 41.7876C34.4896 41.8241 34.5672 41.9132 34.5672 41.9858C34.5672 42.0583 34.7465 42.2672 34.9656 42.4499C35.1847 42.6326 35.3319 42.8342 35.2926 42.8978C35.2532 42.9615 35.275 42.9801 35.3411 42.9393C35.4071 42.8985 35.5456 42.9939 35.6487 43.1514C35.7519 43.3088 35.9126 43.4375 36.0059 43.4375C36.0992 43.4375 36.1756 43.4892 36.1756 43.5524C36.1756 43.6156 36.2488 43.6673 36.3384 43.6673C36.4279 43.6673 36.5183 43.706 36.5395 43.7535C36.5936 43.8752 38.2424 44.6759 38.5883 44.7485C38.7463 44.7816 39.0823 44.8609 39.3351 44.9245C40.3378 45.1773 43.04 44.9441 43.4963 44.5655C43.5771 44.4983 43.6434 44.4858 43.6434 44.5378C43.6434 44.5898 43.7055 44.5702 43.7813 44.4944C43.8571 44.4186 44.0122 44.3566 44.126 44.3566C44.2397 44.3566 44.3328 44.3059 44.3328 44.2439C44.3328 44.182 44.462 44.0988 44.62 44.0591C44.778 44.0195 44.9072 43.9378 44.9072 43.8779C44.9072 43.8178 44.9514 43.796 45.0054 43.8293C45.0594 43.8627 45.2235 43.7623 45.3701 43.6063C45.5167 43.4503 45.6826 43.3227 45.7389 43.3227C45.8698 43.3227 46.9752 42.1917 46.9752 42.0578C46.9752 42.0025 47.0783 41.885 47.2043 41.7967C47.3302 41.7085 47.3992 41.6021 47.3575 41.5604C47.3158 41.5187 47.4875 41.4846 47.7392 41.4846C48.9102 41.4846 51.0294 40.862 51.2892 40.4415C51.3264 40.3813 51.3985 40.3577 51.4494 40.3892C51.5003 40.4207 51.6803 40.3181 51.8495 40.1613C52.0186 40.0046 52.1898 39.8763 52.2297 39.8763C52.3504 39.8763 53.3951 38.7519 53.3325 38.6894C53.3006 38.6574 53.3838 38.5728 53.5173 38.5013C53.6509 38.4299 53.7334 38.3281 53.7007 38.2752C53.6681 38.2224 53.7183 38.1153 53.8124 38.0372C53.9065 37.9591 53.9835 37.824 53.9835 37.737C53.9835 37.6499 54.0352 37.5787 54.0984 37.5787C54.1616 37.5787 54.2053 37.5399 54.1956 37.4926C54.1858 37.4451 54.2637 37.2133 54.3687 36.9772C54.5846 36.492 54.7623 35.6978 54.8241 34.9426C54.8471 34.6616 54.9318 34.4098 55.0122 34.383C55.1709 34.3302 56.2813 33.2111 56.2813 33.1042C56.2813 33.0682 56.3866 32.973 56.5155 32.8926C56.6443 32.8122 56.7187 32.6959 56.6805 32.6343C56.6425 32.5728 56.6919 32.4915 56.7903 32.4538C56.8888 32.416 56.9407 32.3389 56.9057 32.2822C56.8708 32.2257 56.9 32.1794 56.9706 32.1794C57.0413 32.1794 57.0671 32.1277 57.0281 32.0645C56.989 32.0014 57.0148 31.9497 57.0855 31.9497C57.1562 31.9497 57.182 31.898 57.1429 31.8348C57.1039 31.7716 57.1297 31.7199 57.2004 31.7199C57.271 31.7199 57.2997 31.6726 57.2639 31.6148C57.2282 31.557 57.2494 31.4924 57.3113 31.4712C57.373 31.4501 57.4395 31.3293 57.4589 31.2029C57.4783 31.0766 57.5289 30.9178 57.5711 30.8503C57.7548 30.5564 58.006 28.649 57.9407 28.0438C57.8319 27.0358 57.7424 26.5789 57.5807 26.2057C57.1952 25.317 56.9036 24.7588 56.7162 24.5514C56.6078 24.4312 56.5445 24.2916 56.5757 24.2412C56.6069 24.1908 56.5231 24.0909 56.3895 24.0195C56.256 23.948 56.175 23.8613 56.2096 23.8267C56.244 23.7921 56.0159 23.5168 55.7023 23.2146C55.1509 22.6831 55.0115 22.3881 55.2442 22.2444C55.3056 22.2063 55.4178 21.9577 55.4932 21.6919C55.5688 21.4261 55.6452 21.1568 55.6632 21.0936C56.1505 19.371 56.2007 17.7612 55.8173 16.1538C55.6817 15.5852 55.5175 15.0554 55.4523 14.9763C55.3873 14.8974 55.3676 14.8327 55.4085 14.8327C55.4495 14.8327 55.3934 14.6647 55.284 14.4594C55.1747 14.2541 55.0957 14.0472 55.1087 13.9999C55.1217 13.9525 55.0807 13.9137 55.0175 13.9137C54.9543 13.9137 54.9026 13.8425 54.9026 13.7554C54.9026 13.6684 54.8256 13.5333 54.7315 13.4552C54.6374 13.3771 54.5888 13.2674 54.6234 13.2114C54.658 13.1554 54.6316 13.1095 54.5647 13.1095C54.4978 13.1095 54.443 13.0304 54.443 12.9337C54.443 12.8368 54.3655 12.7279 54.2707 12.6916C54.1759 12.6552 54.0984 12.5649 54.0984 12.4908C54.0984 12.4167 53.995 12.2816 53.8686 12.1905C53.7422 12.0994 53.6365 11.9717 53.6336 11.9067C53.6308 11.8416 53.3921 11.5558 53.1034 11.2715C52.8147 10.9872 52.614 10.8321 52.6574 10.9269C52.7009 11.0216 52.6143 10.9571 52.4652 10.7833C52.3161 10.6096 52.1411 10.4673 52.0764 10.4673C52.0117 10.4673 51.8337 10.3511 51.6809 10.2089C51.528 10.0668 51.3631 9.96336 51.3145 9.9791C51.2659 9.99496 51.2261 9.9621 51.2261 9.90638C51.2261 9.85055 51.1356 9.7745 51.0251 9.7374C50.9146 9.70018 50.7465 9.61907 50.6517 9.55715C50.2171 9.27271 48.7516 8.72945 48.6617 8.81929C48.6301 8.85099 48.6055 8.343 48.6071 7.69049C48.6087 7.03786 48.547 6.27139 48.4698 5.98707C48.3927 5.70274 48.3479 5.46517 48.3704 5.45908C48.393 5.45299 48.3498 5.37384 48.2745 5.2832C48.1993 5.19256 48.11 4.96522 48.076 4.77808C48.0421 4.59106 47.9612 4.42023 47.8962 4.39852C47.8311 4.37681 47.8073 4.3119 47.843 4.25412C47.8787 4.19634 47.8501 4.14901 47.7794 4.14901C47.7088 4.14901 47.6787 4.1042 47.7125 4.04952C47.7464 3.99472 47.6072 3.75463 47.4033 3.51602C47.1995 3.27731 47.0327 3.04674 47.0327 3.00366C47.0327 2.90809 45.8008 1.67911 45.7049 1.67911C45.6674 1.67911 45.4404 1.52403 45.2006 1.33448C44.9607 1.14493 44.719 1.00282 44.6635 1.01856C44.6079 1.03441 44.5625 0.992483 44.5625 0.925623C44.5625 0.858764 44.5108 0.835903 44.4477 0.874962C44.3845 0.914021 44.3328 0.896789 44.3328 0.836707C44.3328 0.776741 44.1905 0.687365 44.0168 0.638312C43.6133 0.524352 43.6407 0.533772 43.2726 0.380868C42.4372 0.0339345 40.1118 -0.0823228 39.0598 0.170296C38.5121 0.301832 37.9518 0.508728 37.7297 0.661517C37.6052 0.747332 37.4176 0.817523 37.313 0.817523C37.2085 0.817523 37.059 0.894491 36.9809 0.988577C36.9027 1.08266 36.7927 1.13103 36.7363 1.09622C36.6797 1.0613 36.6027 1.11322 36.5649 1.21167C36.5271 1.31012 36.4554 1.36538 36.4054 1.33448C36.3554 1.30357 36.285 1.35561 36.2487 1.45004C36.2125 1.54448 36.1048 1.62167 36.0095 1.62167C35.9142 1.62167 35.7519 1.75045 35.6487 1.90784C35.5456 2.06534 35.4138 2.16482 35.356 2.12909C35.2981 2.09337 35.265 2.13254 35.2823 2.21629C35.2997 2.29992 35.2455 2.35414 35.1618 2.33679C35.0781 2.31945 35.0395 2.35357 35.0759 2.4125C35.1124 2.47155 34.9898 2.648 34.8036 2.80469C34.6174 2.96139 34.4924 3.11694 34.5259 3.15048C34.5595 3.18391 34.4775 3.26984 34.344 3.34129C34.2104 3.41275 34.1315 3.52039 34.1686 3.58036C34.2456 3.70477 34.0966 3.72212 33.8298 3.61976C33.7298 3.58139 33.648 3.478 33.648 3.39C33.648 3.30201 33.5963 3.22998 33.5332 3.22998C33.47 3.22998 33.4183 3.18161 33.4183 3.12256C33.4183 2.97655 32.1197 1.67762 32.0076 1.71162C31.9585 1.72644 31.8884 1.66062 31.8517 1.56527C31.8152 1.46992 31.7132 1.39192 31.6252 1.39192C31.5372 1.39192 31.4651 1.34022 31.4651 1.27704C31.4651 1.21385 31.3876 1.16216 31.2928 1.16216C31.198 1.16216 31.1205 1.10736 31.1205 1.0405C31.1205 0.973643 31.0688 0.950782 31.0056 0.989841C30.9424 1.0289 30.8907 1.00604 30.8907 0.939179C30.8907 0.872319 30.852 0.825564 30.8045 0.835444C30.7571 0.845208 30.4847 0.744689 30.1989 0.611889C29.9133 0.479205 29.5256 0.342729 29.3373 0.308724C29.1491 0.27472 28.8144 0.194305 28.5937 0.130088C28.035 -0.0323504 26.2685 0.00452567 25.3879 0.197177ZM59.2971 0.168687C59.155 0.239567 59.0386 0.358352 59.0386 0.432449C59.0386 0.506661 58.8965 0.691271 58.7227 0.842796C58.211 1.28898 58.1059 1.54838 58.2589 1.98791C58.3815 2.34013 58.694 2.77425 58.694 2.59228C58.694 2.5484 58.7647 2.57126 58.8512 2.64306C59.0357 2.79619 59.4067 2.75955 59.6411 2.56506C59.7321 2.48958 59.8488 2.46615 59.9005 2.51302C59.9522 2.55977 59.9615 2.54013 59.9211 2.46925C59.8806 2.39837 60.0115 2.20457 60.212 2.03845C60.4125 1.87245 60.5277 1.73494 60.4682 1.73288C60.4086 1.73092 60.4505 1.66039 60.5614 1.5763C60.8153 1.38353 60.8984 0.740669 60.6957 0.537908C60.6118 0.453931 60.5794 0.345026 60.6239 0.295858C60.6682 0.246575 60.6395 0.243703 60.5601 0.289425C60.4789 0.336181 60.3894 0.304129 60.3557 0.216247C60.2816 0.023251 59.6462 -0.00535402 59.2971 0.168687ZM28.9931 2.31887C29.3732 2.43628 29.9254 2.68534 30.2199 2.87224C30.5144 3.05915 30.7942 3.17725 30.8415 3.13486C30.8889 3.09235 30.9005 3.10935 30.8673 3.17254C30.8341 3.23572 31.0237 3.46835 31.2886 3.68949C31.5535 3.91063 31.8234 4.19496 31.8884 4.32132C31.9534 4.44769 32.1518 4.80393 32.3292 5.11284C32.5066 5.42186 32.72 5.96466 32.8034 6.31907C32.9487 6.93631 33.0224 9.33153 32.8998 9.45411C32.6977 9.65618 30.7331 9.08776 29.9716 8.60688C29.7504 8.4673 29.5178 8.35058 29.4546 8.34759C29.3914 8.34449 29.3373 8.29038 29.3342 8.2272C29.3312 8.16402 29.215 7.93139 29.0761 7.71025C28.9372 7.48911 28.8234 7.16974 28.8231 7.00041C28.8229 6.83119 28.7415 6.61155 28.6422 6.51218C28.5428 6.41292 28.501 6.3317 28.5492 6.3317C28.5974 6.3317 28.5365 6.25577 28.4138 6.16306C28.0436 5.8831 27.3635 5.94226 27.0216 6.28414C26.7555 6.5502 26.7311 6.64452 26.7875 7.19076C26.8221 7.5261 26.9939 8.09337 27.1691 8.45133C27.5058 9.13899 28.4915 10.2376 28.7716 10.2376C28.8629 10.2376 28.9376 10.2809 28.9376 10.3338C28.9376 10.4817 30.105 11.0196 30.8437 11.212C31.207 11.3065 31.8315 11.4175 32.2315 11.4585L32.9587 11.533V15.7102V19.8874H29.7472C26.3456 19.8874 26.0751 19.9245 25.8482 20.4224C25.4328 21.3342 25.9373 21.9552 27.0936 21.9552C27.6198 21.9552 27.6738 21.9795 27.6738 22.2154C27.6738 22.3584 27.5734 22.663 27.4506 22.892C27.3277 23.1211 27.2505 23.3318 27.2789 23.3602C27.3073 23.3886 27.2139 23.5106 27.0713 23.6312C26.8136 23.8494 26.8131 23.8493 26.9844 23.6146C27.0792 23.4847 27.019 23.5193 26.8507 23.6915C26.6824 23.8637 26.5143 23.9742 26.4773 23.9372C26.4403 23.9001 26.41 23.9332 26.41 24.0106C26.41 24.088 26.3619 24.1217 26.3029 24.0853C26.1208 23.9727 25.8356 24.5111 25.8356 24.9677C25.8356 25.458 26.1132 25.8111 26.5936 25.9316C27.1979 26.0833 28.6479 25.0886 29.0688 24.2338C29.4701 23.4188 29.6099 23.027 29.6875 22.5009L29.7679 21.9552H31.3633H32.9587V27.0673C32.9587 29.9233 32.9142 32.1794 32.8578 32.1794C32.8025 32.1794 32.6932 32.1024 32.6151 32.0084C32.5369 31.9143 32.4144 31.8709 32.3426 31.9119C32.2707 31.9529 32.251 31.9435 32.2987 31.891C32.3978 31.7817 31.5425 31.1391 30.7758 30.7469C29.9531 30.326 28.7574 30.0018 27.7467 29.9255C26.8547 29.8582 26.7978 29.8684 26.4962 30.1501C26.2567 30.3738 26.1811 30.5509 26.1839 30.8815C26.1899 31.5992 26.6117 31.9497 27.4697 31.9497C28.4794 31.9497 29.8112 32.4323 30.6736 33.1106C30.9017 33.2901 31.1214 33.4125 31.1618 33.3825C31.2023 33.3527 31.2094 33.3628 31.1777 33.4051C31.0873 33.5255 31.4819 33.9058 31.6131 33.8247C31.6777 33.7848 31.6957 33.8083 31.6533 33.877C31.6109 33.9456 31.6735 34.0699 31.7925 34.1533C31.9114 34.2366 32.0184 34.3421 32.0303 34.388C32.0422 34.4338 32.2339 34.8652 32.4563 35.3465C32.6787 35.8277 32.8439 36.2372 32.8235 36.2562C32.8031 36.2753 32.3986 36.4122 31.9247 36.5606C31.2225 36.7803 30.8079 36.8304 29.6844 36.8311C28.2164 36.8321 27.9234 36.7498 27.1767 36.1265C26.7209 35.7462 26.2443 35.7739 25.8126 36.2055C25.5127 36.5053 25.4722 36.6147 25.5296 36.9687C25.6088 37.4564 25.9346 37.8346 26.6256 38.241C27.862 38.9679 29.583 39.1344 31.6048 38.7225C32.2386 38.5933 32.7765 38.5069 32.8 38.5306C32.9083 38.6388 32.4563 39.8021 32.1007 40.3304C31.8836 40.653 31.7681 40.8788 31.844 40.8323C31.92 40.7857 31.7495 40.9797 31.4651 41.2633C31.1808 41.547 30.9223 41.7801 30.8907 41.7812C30.8591 41.7824 30.5747 41.9509 30.2588 42.1557C28.5163 43.2852 25.8423 43.2992 24.0939 42.1879C22.4716 41.1565 21.5699 39.7201 21.3579 37.8288C21.2401 36.7794 21.0089 36.4853 20.3161 36.5035C19.9011 36.5144 19.3877 36.794 19.4245 36.9893C19.4321 37.0291 19.3959 37.1593 19.3443 37.2784C19.2926 37.3976 19.3058 37.9145 19.3736 38.4272C19.4414 38.9399 19.486 39.3704 19.4726 39.3838C19.4593 39.3974 19.2121 39.3372 18.9232 39.2503C18.2489 39.0474 17.4622 38.6517 17.1327 38.3499C16.9904 38.2196 16.8742 38.1569 16.8742 38.2106C16.8742 38.3938 15.8242 36.9565 15.6023 36.4698C15.2643 35.7278 15.115 34.8523 15.1846 34.0214C15.422 31.1903 17.2557 30.2092 19.351 31.7924C19.9345 32.2332 20.0911 32.2994 20.4289 32.2474C20.9895 32.1614 21.2922 31.8174 21.2922 31.2662C21.2922 30.7564 21.0386 30.4205 20.2327 29.8628C18.7304 28.823 16.5529 28.727 15.2231 29.6419C14.7144 29.9919 14.2327 30.477 14.5764 30.2933C14.6712 30.2427 14.6086 30.3232 14.4373 30.4723C14.2658 30.6214 13.9871 31.0278 13.8178 31.3753C13.6484 31.7228 13.4918 32.0281 13.4698 32.0539C13.4238 32.1075 12.8667 31.5269 12.8436 31.4012C12.8352 31.3554 12.7362 31.1369 12.6236 30.9158C11.8811 29.4579 11.8759 27.5558 12.6104 26.1161C12.7303 25.8811 12.8468 25.6394 12.8695 25.5791C12.892 25.5187 13.0139 25.3557 13.1403 25.2167C13.2666 25.0777 13.4274 24.8944 13.4976 24.8094C13.6596 24.613 14.393 23.9744 14.4983 23.9381C14.5419 23.9231 14.8746 23.7616 15.2377 23.5791C15.6006 23.3967 16.0786 23.2113 16.2997 23.1671C16.5209 23.123 16.7819 23.0647 16.8797 23.0376C16.9996 23.0044 17.1046 23.1187 17.2023 23.3887C17.2819 23.6088 17.512 23.9551 17.7138 24.1584C17.9155 24.3616 18.003 24.4835 17.9082 24.4292C17.8134 24.375 17.8597 24.4666 18.011 24.6328C18.1624 24.799 18.3384 24.9028 18.4022 24.8634C18.466 24.824 18.4846 24.8459 18.4436 24.9123C18.3737 25.0253 18.5557 25.1598 18.7362 25.1285C18.7809 25.1207 18.8843 25.1974 18.966 25.299C19.1708 25.5534 19.9703 25.8449 20.6985 25.9305C21.2458 25.9948 21.3431 25.971 21.6753 25.6915C21.9748 25.4396 22.0442 25.2966 22.0442 24.9318C22.0442 24.6847 21.9894 24.4825 21.9225 24.4825C21.8557 24.4825 21.8306 24.4344 21.867 24.3755C21.9726 24.2045 21.4529 23.9081 21.0475 23.9081C20.6068 23.9081 20.1315 23.7208 19.7751 23.4067C19.6329 23.2814 19.5166 23.2262 19.5166 23.2841C19.5166 23.342 19.3775 23.1313 19.2073 22.8159C18.8596 22.1712 18.7886 21.2331 19.0421 20.6341C19.1224 20.4446 19.1951 20.2636 19.2036 20.232C19.2121 20.2004 19.4182 20.0082 19.6616 19.8048C20.1142 19.4267 20.7125 19.2 21.2603 19.1988C21.9369 19.1973 22.2821 18.1531 21.806 17.5479C21.5968 17.2818 21.4857 17.2452 20.8882 17.2452C19.1762 17.2452 17.6553 18.4233 17.0815 20.1938L16.8167 21.011L16.2762 21.0843C15.9788 21.1246 15.5158 21.2352 15.2473 21.3299C14.9787 21.4246 14.701 21.48 14.6303 21.4528C14.5596 21.4256 14.3769 20.9977 14.2245 20.5019C14 19.7721 13.947 19.3485 13.9464 18.2791C13.9455 16.7696 14.1711 15.8983 14.8978 14.603C15.1282 14.1923 15.3009 13.8046 15.2817 13.7414C15.2624 13.6782 15.2836 13.6635 15.3288 13.7088C15.4305 13.8104 15.9122 13.2162 15.8594 13.0543C15.8382 12.99 15.8594 12.9756 15.9062 13.0224C16.0256 13.1417 16.3134 12.88 16.2232 12.7341C16.1827 12.6684 16.1983 12.6447 16.2581 12.6817C16.318 12.7187 16.6023 12.5329 16.89 12.2688C17.1778 12.0045 17.46 11.7662 17.5171 11.7388C18.5483 11.2461 19.5225 10.8256 19.7617 10.7699C20.0184 10.7101 20.0855 10.7507 20.2046 11.0383C20.4011 11.5126 21.2343 12.5991 21.3724 12.561C21.4354 12.5437 21.4584 12.5755 21.4236 12.6319C21.3587 12.7369 21.7945 13.1977 21.8935 13.1287C21.9237 13.1076 21.983 13.1288 22.025 13.1758C22.0672 13.2228 22.0241 13.2214 21.9293 13.1728C21.8345 13.1241 21.9121 13.2143 22.1016 13.3732C22.2911 13.5321 22.4824 13.6397 22.5266 13.6124C22.571 13.585 22.6584 13.6584 22.721 13.7755C22.8539 14.0239 24.2064 14.6722 25.0671 14.9003C25.7318 15.0764 26.0016 15.0322 26.3813 14.6847C26.7012 14.3918 26.7311 13.7016 26.4387 13.3588C26.2802 13.1731 25.1316 12.6933 24.3994 12.507C24.3362 12.4909 24.2587 12.4493 24.2271 12.4148C24.0826 12.2562 23.3534 11.7888 23.2505 11.7887C23.1874 11.7886 23.1334 11.7109 23.1305 11.6161C23.1276 11.5213 23.0501 11.461 22.9581 11.4821C22.8662 11.5032 22.8256 11.4859 22.8678 11.4436C22.9398 11.3717 22.7142 11.0525 22.2453 10.5626C22.1346 10.447 22.0729 10.3525 22.1082 10.3525C22.1434 10.3525 22.0933 10.2104 21.9969 10.0365C21.6175 9.35267 21.4476 8.76472 21.3873 7.92737C21.3117 6.87818 21.4789 6.06909 21.9619 5.14914C23.2945 2.61089 26.1798 1.44947 28.9931 2.31887ZM42.6821 2.32404C44.0902 2.75886 45.3831 3.87536 46.0593 5.24035C46.6968 6.52734 46.778 7.89738 46.2975 9.26111C46.1639 9.64021 46.0421 10.0021 46.0267 10.0653C46.0113 10.1284 45.9725 10.206 45.9405 10.2376C45.7153 10.4602 45.201 11.2316 45.2264 11.3087C45.2435 11.3609 45.2104 11.3743 45.1528 11.3387C45.0173 11.2549 44.7675 11.5531 44.8795 11.6649C44.9263 11.7118 44.913 11.7344 44.8498 11.7154C44.7194 11.6759 43.7583 12.2931 43.7583 12.4164C43.7583 12.4606 43.6937 12.5032 43.6147 12.5109C43.4639 12.5256 42.1662 12.9417 41.7131 13.1206C41.5676 13.1779 41.3714 13.4097 41.2769 13.6356C41.1207 14.0095 41.1238 14.0838 41.3116 14.4663C41.6223 15.0987 42.0207 15.1656 43.2296 14.7887C43.766 14.6216 44.2736 14.4209 44.3577 14.3428C44.4418 14.2648 44.5869 14.1852 44.6802 14.1659C44.7735 14.1466 44.9065 14.057 44.976 13.9667C45.0454 13.8762 45.1298 13.8298 45.1633 13.8634C45.1967 13.8969 45.4148 13.7446 45.6478 13.5249C45.8807 13.3053 46.1067 13.1091 46.1499 13.0889C46.1931 13.0687 46.2142 13.0095 46.1968 12.9574C46.1795 12.9053 46.2113 12.8912 46.2677 12.926C46.324 12.9608 46.4674 12.8782 46.5864 12.7425C46.7238 12.5858 46.7399 12.5321 46.6306 12.5952C46.5358 12.65 46.679 12.475 46.949 12.206C47.2189 11.9372 47.4097 11.6686 47.3731 11.6092C47.3363 11.5498 47.3598 11.5012 47.425 11.5012C47.4904 11.5012 47.6292 11.3333 47.7336 11.1279C47.8382 10.9226 47.9371 10.7388 47.9536 10.7195C48.0336 10.626 49.8673 11.4332 50.4421 11.815C53.0537 13.549 54.4617 16.5789 53.9832 19.4355C53.8663 20.1336 53.4982 21.3297 53.3566 21.4715C53.3384 21.4897 52.9432 21.3992 52.4782 21.2704C52.0132 21.1416 51.5006 21.0362 51.3391 21.0362C51.0948 21.0362 51.0408 20.9778 51.0189 20.6905C50.974 20.1015 50.4625 19.116 49.8915 18.5184C49.5913 18.2041 49.3089 17.9697 49.2639 17.9975C49.219 18.0253 49.1544 17.9758 49.1207 17.8876C49.0183 17.6211 47.8328 17.2452 47.0941 17.2452C46.4999 17.2452 46.3884 17.2821 46.1794 17.5479C45.6439 18.2285 46.0244 19.1259 46.89 19.2234C47.4478 19.2862 48.2219 19.6149 48.4424 19.8826C48.9632 20.5146 49.1921 21.3483 49.0361 22.0442C48.8054 23.074 48.0775 23.7552 47.082 23.8731C46.7705 23.91 46.5157 23.9876 46.5157 24.0458C46.5157 24.1039 46.4675 24.1217 46.4086 24.0853C46.2303 23.9751 45.9412 24.5071 45.9412 24.9456C45.9412 25.1723 46.0226 25.458 46.1221 25.5807C46.2215 25.7032 46.2657 25.7261 46.2201 25.6313C46.1744 25.5366 46.256 25.5815 46.4012 25.7313C46.6374 25.9749 46.7312 25.9957 47.2932 25.9297C47.9673 25.8505 49.0432 25.4422 49.0432 25.2658C49.0432 25.2066 49.0915 25.1881 49.1505 25.2245C49.2907 25.3112 50.4464 24.1556 50.3598 24.0154C50.3233 23.9564 50.3508 23.9081 50.421 23.9081C50.4912 23.9081 50.6288 23.7143 50.7271 23.4774C50.8253 23.2405 50.9154 23.0358 50.9272 23.0226C50.939 23.0093 51.2538 23.0782 51.6269 23.1756C52.4629 23.3938 53.2752 23.7976 53.7933 24.2526C54.0094 24.4422 54.2439 24.5974 54.3146 24.5974C54.3852 24.5974 54.443 24.6592 54.443 24.7347C54.443 24.8103 54.569 25.0041 54.7228 25.1655C55.1409 25.6041 55.6658 26.7436 55.8265 27.5613C55.9974 28.4308 55.9144 29.5206 55.6179 30.3009C55.3969 30.8824 54.6778 32.0645 54.5449 32.0645C54.5043 32.0645 54.4066 31.9095 54.3281 31.7199C54.2497 31.5304 54.1369 31.3753 54.0777 31.3753C54.0184 31.3753 53.9997 31.3271 54.0361 31.2682C54.0724 31.2094 53.9865 31.0801 53.8449 30.981C53.7035 30.882 53.6247 30.8009 53.6699 30.8009C53.9804 30.8009 52.3997 29.5593 52.0053 29.4933C51.9243 29.4798 51.7546 29.4123 51.6282 29.3435C51.1895 29.1045 50.0438 28.937 49.3692 29.0132C48.0545 29.162 46.8908 29.7115 46.1827 30.5179C45.8576 30.8882 45.8116 31.0116 45.8678 31.3644C45.9072 31.6123 46.0578 31.8853 46.2446 32.0475C46.6454 32.3956 47.2138 32.3219 47.7122 31.8573C48.3121 31.2982 48.8887 31.0917 49.8475 31.0926C50.8264 31.0935 51.3785 31.3193 51.9888 31.9683C52.5683 32.5846 52.7552 33.0661 52.8108 34.0854C52.8831 35.4108 52.5194 36.5691 51.7532 37.4536C51.6214 37.6059 51.578 37.6934 51.657 37.6479C52.018 37.4399 51.738 37.6991 51.1112 38.1531C50.7321 38.4278 50.4219 38.6866 50.4219 38.7283C50.4219 38.77 50.3573 38.809 50.2783 38.8149C50.1994 38.8208 49.7788 38.9604 49.3438 39.1249C48.9087 39.2895 48.5312 39.4025 48.5046 39.3761C48.4782 39.3496 48.5159 38.8956 48.5884 38.3671C48.7442 37.2325 48.6493 36.8738 48.1207 36.6004C47.4206 36.2384 46.6306 36.7319 46.6306 37.5312C46.6306 39.0631 45.6844 40.8831 44.3994 41.8233C42.3979 43.2875 39.861 43.4328 37.7879 42.2019C37.5014 42.0319 37.2395 41.8914 37.2058 41.8897C37.0283 41.8809 35.9054 40.4785 35.6178 39.9064C35.2786 39.2316 35.0612 38.4977 35.2005 38.4977C35.2431 38.4977 35.803 38.6063 36.4448 38.7391C38.7058 39.2068 40.7635 38.8603 41.9433 37.8134C42.3861 37.4205 42.428 37.3363 42.4102 36.8772C42.3953 36.4908 42.3206 36.3118 42.0915 36.114C41.6813 35.7596 41.241 35.7898 40.6572 36.2127C39.856 36.7931 39.3045 36.9266 37.9741 36.8619C36.7846 36.8042 35.1786 36.3847 35.2171 36.1418C35.2876 35.6975 35.3209 35.5613 35.3714 35.5109C35.403 35.4793 35.5581 35.2012 35.7161 34.8927C35.874 34.5844 36.1331 34.1967 36.2916 34.0311C36.4503 33.8657 36.6724 33.601 36.7852 33.4431C36.8982 33.2851 36.9535 33.2296 36.9084 33.3198C36.8632 33.41 37.0159 33.3325 37.2478 33.1475C37.4795 32.9625 37.6692 32.7812 37.6692 32.7443C37.6692 32.7074 37.7339 32.6728 37.8128 32.6675C37.8918 32.6623 38.2753 32.5241 38.665 32.3605C39.0549 32.1969 39.7011 32.0342 40.1012 31.9989C41.1502 31.9066 41.3127 31.8605 41.5722 31.5819C41.8549 31.2785 41.8822 30.5951 41.6244 30.2771C41.5249 30.1546 41.4807 30.1317 41.5264 30.2265C41.572 30.3213 41.4899 30.2758 41.3441 30.1254C41.0954 29.8689 41.0242 29.8565 40.1947 29.9256C39.7083 29.9662 39.0316 30.0802 38.6909 30.1792C37.9024 30.4081 36.5203 31.0342 36.5203 31.1625C36.5203 31.2164 36.4557 31.2605 36.3767 31.2605C36.2977 31.2606 36.0004 31.4674 35.7161 31.7199C35.4317 31.9724 35.1603 32.1792 35.1129 32.1793C35.0654 32.1793 35.0267 29.879 35.0267 27.0673V21.9552H36.6202H38.2137L38.2727 22.4434C38.37 23.2502 38.8003 24.2081 39.3299 24.7972C39.9657 25.5043 40.8939 26.0274 41.3236 25.9208C41.833 25.7943 42.1499 25.4163 42.1499 24.9347C42.1499 24.4351 41.921 24.1299 41.3075 23.8111C40.851 23.574 40.5335 23.1077 40.3323 22.3789L40.2152 21.9552H40.9042C41.5125 21.9552 41.6324 21.9159 41.9289 21.6194C42.3499 21.1985 42.3709 20.7129 41.9876 20.2672L41.7105 19.9448L38.3686 19.9112L35.0267 19.8774V15.7052V11.533L35.7709 11.4568C37.4107 11.2887 38.8482 10.6645 39.8486 9.68559C40.8755 8.68109 41.3885 7.44476 41.1182 6.62602C41.0435 6.39982 40.9403 6.24072 40.8888 6.27254C40.8374 6.30436 40.7657 6.25313 40.7294 6.1587C40.6431 5.93388 39.8708 5.93675 39.5716 6.16306C39.4489 6.25577 39.3972 6.33251 39.4567 6.33343C39.5161 6.33446 39.4964 6.37857 39.4127 6.43165C39.3291 6.48461 39.2098 6.75423 39.1478 7.03062C39.0037 7.67142 38.5851 8.21881 37.9126 8.64547C37.3212 9.02067 36.2287 9.39138 35.5377 9.45123L35.0842 9.49041L35.0513 8.23065C35.0174 6.93148 35.111 6.24405 35.4233 5.49941C35.5226 5.26275 35.6147 5.03013 35.6282 4.98245C35.6747 4.81714 37.2096 3.05812 37.2096 3.17012C37.2096 3.19919 37.3945 3.09764 37.6203 2.94439C38.9705 2.02823 40.942 1.78664 42.6821 2.32404ZM12.853 4.00931C12.5724 4.10558 12.1657 4.45723 12.2442 4.5358C12.2842 4.57578 12.2565 4.60852 12.1829 4.60852C11.8118 4.60852 12.1543 5.51549 12.7382 6.07897C12.9593 6.29241 13.0757 6.43348 12.9967 6.39259C12.7178 6.24807 12.8582 6.42326 13.2773 6.74285C13.7687 7.1177 14.2259 7.13264 14.6636 6.78834C14.8222 6.66359 14.9089 6.56146 14.8561 6.56146C14.8034 6.56146 14.8222 6.49943 14.8981 6.42361C15.1166 6.20511 15.0606 5.91917 14.72 5.51434C14.5463 5.3079 14.4103 5.11008 14.4178 5.07481C14.4255 5.03943 14.2058 4.80025 13.9296 4.54304C13.6535 4.28594 13.4275 4.09386 13.4275 4.11627C13.4275 4.13878 13.3371 4.11052 13.2264 4.05366C13.1158 3.99679 12.9478 3.97692 12.853 4.00931ZM55.9568 4.15349C55.4722 4.44815 55.1324 4.75407 55.1324 4.89572C55.1324 4.96235 54.9773 5.15293 54.7877 5.31928C54.479 5.59016 54.3784 5.87035 54.4344 6.30275C54.4446 6.38156 54.5858 6.57892 54.7482 6.74125C55.1508 7.14378 55.7419 7.09875 56.2525 6.62637C56.458 6.43647 56.6259 6.22349 56.6259 6.15307C56.6259 6.08264 56.783 5.88505 56.975 5.71411C57.8315 4.95097 56.9265 3.56381 55.9568 4.15349ZM13.6573 4.19243C13.6573 4.21621 13.7477 4.30673 13.8583 4.39347C14.0405 4.53626 14.0446 4.53224 13.9018 4.35004C13.7516 4.15866 13.6573 4.09788 13.6573 4.19243ZM0.416485 21.7102C0.242772 21.8241 0.135121 21.9518 0.17717 21.9937C0.219105 22.0357 0.20325 22.0701 0.141899 22.0701C0.0805483 22.0701 0.0181633 22.2769 0.00322763 22.5296C-0.0120527 22.7887 0.0282736 22.9891 0.0955988 22.9891C0.16143 22.9891 0.215199 23.0753 0.215199 23.1806C0.215199 23.2859 0.24978 23.3374 0.29206 23.2952C0.334339 23.253 0.460028 23.3009 0.571586 23.4018C0.784476 23.5944 1.47898 23.5354 1.47898 23.3247C1.47898 23.2664 1.54125 23.2317 1.61742 23.2476C1.69348 23.2633 1.75816 23.216 1.76104 23.1423C1.76391 23.0686 1.80492 22.9695 1.85237 22.9221C1.89982 22.8747 1.93854 22.6981 1.93854 22.5296C1.93854 22.3611 1.89982 22.1845 1.85237 22.1371C1.80492 22.0897 1.76621 22.0036 1.76621 21.9457C1.76621 21.8877 1.72025 21.8447 1.66418 21.8501C1.608 21.8555 1.52793 21.8046 1.48611 21.7369C1.34491 21.5086 0.746678 21.4935 0.416485 21.7102ZM4.92567 21.5779C4.29079 21.8141 4.09054 22.7188 4.56124 23.2244C4.79676 23.4774 4.93245 23.5101 5.88994 23.5452C6.7361 23.5764 6.99299 23.5478 7.13373 23.4072C7.23116 23.3096 7.35133 23.2661 7.4005 23.3106C7.44979 23.3549 7.45266 23.3262 7.40694 23.2468C7.35811 23.162 7.39947 23.0733 7.50723 23.032C7.73253 22.9456 7.71656 22.0757 7.48816 21.9881C7.40648 21.9568 7.37316 21.8769 7.41417 21.8106C7.45519 21.7442 7.43485 21.7233 7.36914 21.7638C7.30331 21.8045 7.18566 21.7608 7.10753 21.6667C7.00184 21.5394 6.72702 21.498 6.03182 21.5048C5.51815 21.5097 5.02045 21.5427 4.92567 21.5779ZM60.7825 21.6676C60.5727 21.7603 60.4336 21.8887 60.4734 21.953C60.5132 22.0175 60.499 22.0701 60.4418 22.0701C60.3845 22.0701 60.3378 22.2769 60.3378 22.5296C60.3378 22.7823 60.3845 22.9891 60.4418 22.9891C60.499 22.9891 60.5131 23.0418 60.4732 23.1064C60.3288 23.3401 61.2135 23.5757 62.1506 23.5531C62.6506 23.541 63.0597 23.4837 63.0597 23.4257C63.0597 23.3676 63.1046 23.3479 63.1592 23.3817C63.2141 23.4156 63.3513 23.341 63.4643 23.2161C63.5773 23.0912 63.6341 22.9891 63.5905 22.9891C63.5469 22.9891 63.5687 22.8817 63.639 22.7504C63.7093 22.6191 63.7285 22.4252 63.6816 22.3196C63.6349 22.2139 63.5921 22.098 63.5866 22.0619C63.5656 21.9227 63.1984 21.6252 63.1309 21.6926C63.0918 21.7318 63.0597 21.7105 63.0597 21.6454C63.0597 21.4538 61.226 21.4717 60.7825 21.6676ZM66.527 21.6704C66.3172 21.7615 66.1759 21.8851 66.213 21.9451C66.2501 22.0052 66.2278 22.0866 66.1636 22.1264C66.0284 22.21 66.0059 22.795 66.133 22.9221C66.1805 22.9695 66.2215 23.0686 66.2244 23.1423C66.2272 23.216 66.2919 23.2633 66.368 23.2476C66.4442 23.2317 66.5064 23.2664 66.5064 23.3247C66.5064 23.5354 67.2009 23.5944 67.4138 23.4018C67.5254 23.3009 67.6511 23.253 67.6934 23.2952C67.7356 23.3374 67.7702 23.2859 67.7702 23.1806C67.7702 23.0753 67.8219 22.9891 67.8851 22.9891C67.9483 22.9891 68 22.7823 68 22.5296C68 22.2769 67.9483 22.0701 67.8851 22.0701C67.8219 22.0701 67.7702 21.9894 67.7702 21.891C67.7702 21.7925 67.7244 21.7403 67.6683 21.7749C67.6124 21.8094 67.5026 21.7608 67.4245 21.6667C67.2491 21.4554 67.02 21.4563 66.527 21.6704ZM14.1435 45.0933C13.8444 45.2633 13.6275 45.4716 13.887 45.3397C13.9818 45.2916 13.7492 45.548 13.37 45.9095C12.9909 46.271 12.7583 46.5267 12.853 46.4777C12.9478 46.4286 12.7152 46.6867 12.336 47.0509C11.9569 47.4153 11.7501 47.6482 11.8765 47.5686C12.0029 47.4888 11.8219 47.6974 11.4744 48.0317C11.1268 48.3661 10.92 48.5977 11.0148 48.5462C11.1518 48.472 11.1483 48.4981 10.9985 48.6735C10.7495 48.9649 10.8071 49.5482 11.1152 49.8563C11.4265 50.1675 12.0371 50.178 12.3596 49.8776C12.4911 49.7551 12.6384 49.6905 12.6869 49.734C12.7354 49.7777 12.7408 49.7535 12.6989 49.6803C12.6551 49.6037 12.8789 49.3167 13.2262 49.0042C13.5581 48.7056 13.7262 48.5255 13.5998 48.6041C13.4734 48.6826 13.6157 48.5187 13.9158 48.2399C14.2159 47.9611 14.4615 47.6747 14.4615 47.6034C14.4615 47.532 14.6936 47.2834 14.9773 47.051C15.261 46.8185 15.4648 46.5825 15.4301 46.5264C15.3954 46.4703 15.4158 46.4244 15.4753 46.4244C15.8352 46.4244 15.5301 45.166 15.1508 45.0862C14.5498 44.9598 14.3764 44.9611 14.1435 45.0933ZM52.6503 45.2393C52.4673 45.4089 52.3306 45.5639 52.3463 45.5839C52.362 45.6039 52.3691 45.6589 52.3618 45.7064C52.3089 46.0501 52.3273 46.1695 52.4711 46.4137C52.6455 46.7101 53.2006 47.3392 53.8973 48.0298C54.1343 48.2647 54.3281 48.5022 54.3281 48.5576C54.3281 48.6129 54.5479 48.8571 54.8164 49.0999C55.0849 49.3429 55.2272 49.5052 55.1324 49.4609C55.0376 49.4164 55.1012 49.5271 55.2739 49.7068C55.5229 49.9661 55.701 50.0385 56.1356 50.0566C56.6695 50.0791 57.1557 49.8474 57.0235 49.6335C56.9923 49.5832 57.0194 49.5096 57.0837 49.4698C57.2792 49.349 57.2141 48.8463 56.9765 48.6429C56.8533 48.5375 56.7737 48.4171 56.7995 48.3753C56.8254 48.3336 56.6158 48.1029 56.3341 47.8627C56.0523 47.6225 55.821 47.3686 55.8201 47.2985C55.8193 47.2284 55.5866 46.9709 55.3031 46.7261C55.0197 46.4813 54.7877 46.216 54.7877 46.1366C54.7877 46.0571 54.6058 45.8534 54.3834 45.6839C54.1608 45.514 54.0139 45.3194 54.0565 45.2503C54.0997 45.1804 54.0811 45.1578 54.0143 45.1991C53.9484 45.2398 53.8308 45.1961 53.7527 45.102C53.5299 44.8337 53.0193 44.8973 52.6503 45.2393ZM23.5378 48.9213C23.443 48.9578 23.275 49.0908 23.1644 49.2171C22.9796 49.4278 22.9633 49.8418 22.9633 54.3068C22.9633 58.9423 22.9743 59.1967 23.2014 59.8034C23.3322 60.1533 23.4904 60.4396 23.5528 60.4396C23.6152 60.4396 23.6365 60.4877 23.6 60.5467C23.5637 60.6055 23.6378 60.7264 23.7649 60.8154C23.892 60.9044 23.9617 61.0113 23.92 61.053C23.8783 61.0947 23.9265 61.1289 24.0273 61.1289C24.1281 61.1289 24.3176 61.2651 24.4485 61.4316C24.5795 61.598 24.6875 61.6886 24.6884 61.6326C24.6894 61.5767 24.7281 61.5867 24.7745 61.6548C24.9576 61.9234 25.7003 62.1899 26.4238 62.2466L27.1844 62.3064L27.243 63.6993C27.2752 64.4654 27.3631 65.2473 27.4384 65.4368C27.5135 65.6264 27.5775 65.8073 27.5805 65.8389C27.5938 65.9811 28.2778 66.8426 28.4966 66.993C28.6304 67.0849 28.883 67.2769 29.058 67.4199C29.754 67.9884 30.0589 68.0226 34.1493 67.9923C37.8116 67.9652 37.9742 67.9546 38.4237 67.7141C38.6807 67.5765 38.9579 67.3832 39.0398 67.2845C39.1217 67.1858 39.2268 67.1286 39.2734 67.1574C39.3677 67.2157 39.8521 66.6988 39.8521 66.5395C39.8521 66.4836 39.933 66.4069 40.0316 66.3689C40.1305 66.331 40.1792 66.248 40.1398 66.1843C40.1005 66.1207 40.1182 66.0686 40.1792 66.0686C40.4155 66.0686 40.6735 64.9425 40.7383 63.6275L40.805 62.2776H41.2843C41.8675 62.2776 42.8812 61.9894 43.1129 61.7578C43.206 61.6647 43.3119 61.5884 43.348 61.5884C43.4624 61.5884 44.3328 60.6745 44.3328 60.5545C44.3328 60.4913 44.3723 60.4396 44.4205 60.4396C44.4688 60.4396 44.611 60.2198 44.7365 59.9514C44.9514 59.4914 44.9666 59.1717 44.998 54.4365L45.0312 49.4099L44.7446 49.1233L44.4581 48.8368L34.084 48.8459C28.3784 48.8509 23.6325 48.8849 23.5378 48.9213ZM43.0431 52.714L43.0747 54.5808H33.9956H24.9164V52.7619C24.9164 51.7614 24.9513 50.9082 24.9938 50.8657C25.0363 50.8232 29.1076 50.8016 34.0413 50.8178L43.0115 50.8472L43.0431 52.714ZM8.48724 51.479C8.48724 51.5422 8.41601 51.5939 8.32892 51.5939C8.24195 51.5939 8.09972 51.6845 8.01298 51.795C7.86776 51.9801 7.8735 51.9833 8.08513 51.8343C8.21151 51.7453 8.06318 51.9134 7.75563 52.2076C7.44795 52.5019 7.23862 52.7427 7.29032 52.7427C7.34202 52.7427 7.32226 52.8048 7.24644 52.8806C7.17061 52.9564 7.10857 53.1011 7.10857 53.2023C7.10857 53.4946 7.38212 54.0045 7.5394 54.0055C7.61845 54.0059 7.68302 54.0581 7.68302 54.1213C7.68302 54.2877 8.29584 54.2622 8.64476 54.0813C8.80893 53.996 8.91681 53.8999 8.88453 53.8675C8.85213 53.8351 9.00804 53.6696 9.23092 53.4996C9.45381 53.3296 9.63614 53.1156 9.63614 53.0241C9.63614 52.9325 9.68784 52.8576 9.75103 52.8576C9.8774 52.8576 9.90773 52.1812 9.79457 51.8863C9.6528 51.5168 8.48724 51.1538 8.48724 51.479ZM58.4079 51.6598C58.1207 51.8888 58.0732 52.0023 58.0899 52.4204C58.1071 52.8525 58.1758 52.9703 58.6602 53.3972C58.9631 53.6643 59.1593 53.885 59.0961 53.8878C59.0329 53.8906 59.1293 53.9702 59.3102 54.0645C59.7411 54.2892 60.259 54.2852 60.3467 54.0566C60.387 53.9516 60.4758 53.9115 60.5601 53.9601C60.6395 54.0058 60.6682 54.0029 60.6239 53.9537C60.5794 53.9045 60.6118 53.7956 60.6957 53.7116C60.8771 53.5302 60.824 52.8531 60.618 52.7224C60.5392 52.6723 60.5172 52.6306 60.5691 52.6296C60.6748 52.6276 60.5792 52.5266 59.8611 51.8815C59.2678 51.3484 58.8738 51.2883 58.4079 51.6598ZM43.0501 57.8468C43.0084 59.2671 42.9155 59.5115 42.2205 60.0304C41.9086 60.2634 41.7767 60.2677 34.1863 60.2984C26.0648 60.3311 26.0912 60.3326 25.5151 59.8145C25.0597 59.4049 24.9164 58.8914 24.9164 57.6685V56.5337H34.0026H43.0887L43.0501 57.8468ZM38.6796 63.5126C38.6357 64.9416 38.6253 64.9856 38.2436 65.3578C38.0585 65.5383 38.0381 65.5836 38.1862 65.4854C38.3853 65.3533 38.3961 65.3552 38.2666 65.4998C38.1845 65.5916 38.0811 65.6684 38.0368 65.6706C37.9926 65.6729 37.8271 65.7504 37.6692 65.8429C37.4346 65.9804 36.7615 66.0112 33.9927 66.0112C30.6347 66.0112 30.5994 66.0087 30.1691 65.7411C29.4827 65.3145 29.2822 64.7922 29.2822 63.431V62.2776H33.9998H38.7175L38.6796 63.5126Z" fill="#2FD4C7"/>
</svg>
