<svg width="60" height="70" viewBox="0 0 60 70" fill="none" xmlns="http://www.w3.org/2000/svg">
<path fill-rule="evenodd" clip-rule="evenodd" d="M53.8202 0.0542132C53.2069 0.139631 52.3007 0.466507 51.7644 0.795828C50.3682 1.65319 49.4466 3.01621 49.1901 4.60332C49.09 5.22222 49.1491 6.30367 49.3149 6.88735C49.6074 7.91751 50.2661 8.93666 51.0732 9.60814C51.3513 9.83945 51.5197 10.0237 51.5091 10.0848C51.4995 10.1397 49.1911 16.2354 46.3794 23.631L41.267 37.0774L40.4049 37.08C39.7272 37.082 39.4432 37.1098 39.0775 37.2099C38.4747 37.3748 37.8939 37.6398 37.3615 37.993L36.9349 38.276L36.6458 38.0408C35.7947 37.3483 26.784 29.9227 26.7107 29.8535C26.6367 29.7834 26.6468 29.7211 26.782 29.4169C27.0968 28.7082 27.2072 28.2397 27.2399 27.4723C27.2931 26.2294 27.0121 25.2171 26.3329 24.2039C25.3065 22.6728 23.6917 21.8164 21.8338 21.818C20.6675 21.819 19.7511 22.0816 18.8467 22.6741C16.0182 24.5269 15.5207 28.4569 17.8081 30.8764L18.2139 31.3057L18.1032 31.4985C18.0424 31.6045 15.5669 35.9043 12.6022 41.0536L7.21199 50.416L6.77141 50.29C6.1663 50.1169 4.6858 50.1059 4.09423 50.2701C1.75892 50.9183 0.136867 52.9121 0.00787969 55.2928C-0.173622 58.6431 2.80761 61.3955 6.13879 60.9532C8.51656 60.6375 10.412 58.822 10.8315 56.4586C11.1174 54.8481 10.579 53.0877 9.43124 51.8806C9.15703 51.5922 9.10555 51.5062 9.15703 51.422C9.19183 51.3651 11.6558 47.0812 14.6324 41.9023C17.6091 36.7234 20.0627 32.4653 20.0849 32.4398C20.107 32.4143 20.3304 32.4455 20.5812 32.5091C22.0496 32.8817 23.4956 32.6215 24.8128 31.7477C25.1978 31.4923 25.2512 31.4728 25.345 31.5542C25.4022 31.6039 27.6964 33.4948 30.4432 35.7563C33.1899 38.0178 35.4614 39.8903 35.4908 39.9175C35.5208 39.9452 35.4623 40.1645 35.3582 40.415C34.9437 41.412 34.8268 42.3895 35.0021 43.3905C35.2088 44.5713 35.6832 45.4653 36.5645 46.3352C37.7131 47.469 39.0808 47.9915 40.6764 47.906C44.5724 47.697 46.9917 43.5568 45.2563 40.068C44.9016 39.3549 44.211 38.5466 43.5057 38.0192L43.302 37.8668L48.4394 24.3565L53.5769 10.8462L54.5258 10.8431C55.6109 10.8397 56.0205 10.758 56.83 10.3836C58.317 9.69582 59.3496 8.50406 59.8357 6.91499C59.9836 6.43098 60 6.28368 60 5.42993C60 4.57599 59.9837 4.42894 59.8355 3.94431C59.5269 2.93526 59.0734 2.20293 58.3082 1.47758C57.1062 0.338166 55.4815 -0.177094 53.8202 0.0542132ZM55.7051 2.39486C56.617 2.73898 57.3335 3.46183 57.6619 4.3692C57.82 4.80595 57.875 5.64069 57.7768 6.11278C57.4353 7.75383 55.7841 8.92192 54.1431 8.68327C52.921 8.50553 51.8172 7.57504 51.4601 6.4215C51.3072 5.92746 51.2958 5.04668 51.4362 4.56976C51.7636 3.45773 52.6514 2.59456 53.7896 2.28169C54.294 2.14307 55.1759 2.19511 55.7051 2.39486ZM22.8115 24.1436C23.8263 24.4563 24.7482 25.4412 24.9847 26.4652C25.0807 26.8809 25.0642 27.7408 24.9531 28.1185C24.4588 29.7974 22.7633 30.8023 21.0894 30.4085C20.3241 30.2284 19.6731 29.8083 19.2055 29.1927C18.2674 27.9579 18.346 26.2215 19.3924 25.059C20.2536 24.1023 21.5508 23.755 22.8115 24.1436ZM41.1946 39.3361C41.7272 39.4746 42.2506 39.7768 42.6737 40.1903C43.2963 40.7986 43.6182 41.5796 43.6169 42.479C43.6156 43.4366 43.3387 44.1067 42.6679 44.7761C41.997 45.4455 41.3255 45.7217 40.3658 45.7231C39.4669 45.7243 38.6888 45.4055 38.0728 44.7838C36.8096 43.5088 36.7978 41.4655 38.0462 40.2169C38.8727 39.3903 40.0914 39.0494 41.1946 39.3361ZM6.42532 52.4522C7.44355 52.7456 8.31723 53.6563 8.60094 54.72C8.72938 55.2015 8.71486 56.025 8.56963 56.494C7.83933 58.8524 4.90327 59.5937 3.14984 57.8623C1.47441 56.208 2.07407 53.3783 4.28456 52.5081C4.92349 52.2565 5.67793 52.2368 6.42532 52.4522Z" fill="#2FD4C7"/>
</svg>
