<svg width="61" height="64" viewBox="0 0 61 64" fill="none" xmlns="http://www.w3.org/2000/svg">
<path fill-rule="evenodd" clip-rule="evenodd" d="M30.4733 0.150827C27.6365 0.773893 25.598 2.66628 24.9158 5.31017C24.6577 6.31024 24.6562 6.34728 24.6562 11.6278V16.9395L15.0766 16.908C8.55142 16.8866 5.28378 16.9128 4.82834 16.9901C2.60854 17.3669 0.742887 19.107 0.162453 21.3423C0.0541155 21.7592 0 22.4692 0 23.4719C0 24.929 0.00821871 24.9842 0.262038 25.2336C0.586838 25.553 1.14294 25.5756 1.51908 25.2847C1.77898 25.0838 1.78773 25.0335 1.84249 23.4222C1.88166 22.2705 1.952 21.6225 2.07347 21.2941C2.45718 20.257 3.44375 19.3038 4.53407 18.9166C5.03242 18.7396 5.69109 18.7239 13.9291 18.6929C23.1061 18.6583 24.0293 18.6911 24.9319 19.0836C25.5947 19.3719 26.4844 20.2369 26.8525 20.9511L27.1645 21.5564L27.1934 30.8163L27.2223 40.0763L26.0727 40.0779C24.8532 40.0794 23.8394 40.2598 23.1852 40.5913C22.23 41.0754 21.3663 42.088 21.0754 43.0646C20.9268 43.5635 20.8445 43.6469 19.5198 44.6407C18.7504 45.2178 17.7302 45.9886 17.2526 46.3536L16.3841 47.0174L16.3307 45.6191C16.2741 44.1372 16.1719 43.7885 15.7672 43.6985C15.6369 43.6696 13.1501 43.6336 10.241 43.6186L4.95173 43.5914L4.13722 43.1956C2.87218 42.5807 2.13537 41.6273 1.91827 40.3243C1.86191 39.9859 1.81548 37.4814 1.81516 34.7588L1.81452 29.8085L1.53327 29.5911C1.14283 29.2891 0.592175 29.3065 0.262038 29.6312L0 29.8886V35.1178C0 39.455 0.0277516 40.4536 0.162453 40.9724C0.670947 42.9303 2.14914 44.5141 4.04831 45.1356C4.72086 45.3558 4.9513 45.3668 9.63298 45.4039L14.5162 45.4426V47.358C14.5162 49.2108 14.524 49.2804 14.7563 49.4877C15.0804 49.777 15.4832 49.8559 15.8012 49.6922C15.9456 49.618 17.1039 48.7696 18.3751 47.8071C19.6464 46.8447 20.7151 46.0572 20.75 46.0572C20.785 46.0572 20.8136 48.4589 20.8136 51.3943C20.8136 54.5262 20.8579 56.9649 20.9209 57.2965C21.183 58.6768 22.1139 59.8395 23.4583 60.4655L24.1759 60.7997L27.6231 60.8521L31.0705 60.9046L31.0921 62.1463L31.1137 63.388L31.4623 63.694C31.654 63.8623 31.9255 64 32.0656 64C32.2304 64 33.0453 63.4498 34.3755 62.4401L36.4307 60.8803L37.5814 60.8266C38.5773 60.7803 38.8268 60.7295 39.4351 60.4497C40.3025 60.0507 41.1371 59.2456 41.574 58.3863C41.8821 57.7805 41.8955 57.6951 41.93 56.1166C41.9648 54.5234 41.9588 54.4701 41.723 54.2541C41.4628 54.0158 40.9002 53.9577 40.5641 54.1345C40.2543 54.2975 40.133 54.8204 40.133 55.992C40.133 57.2224 40.0012 57.6574 39.4604 58.2119C38.8355 58.8528 38.4051 59.0016 37.0376 59.0494C35.6524 59.0976 35.8639 59.0038 34.1024 60.3515L33.035 61.1681L32.9762 60.3781C32.8769 59.0458 33.165 59.1305 28.5226 59.0684C24.6625 59.0167 24.5949 59.0121 24.0867 58.7662C23.4419 58.454 22.8909 57.7394 22.7348 57.013C22.6584 56.6568 22.6304 54.3697 22.6509 50.1402C22.68 44.1149 22.6918 43.781 22.8883 43.3917C23.1518 42.8694 23.6549 42.3748 24.1862 42.1158C24.5852 41.9211 24.8917 41.9125 31.4339 41.9125C38.2595 41.9125 38.2654 41.9127 38.7022 42.1424C39.1783 42.3929 39.7545 42.9815 39.952 43.4194C40.0325 43.5979 40.0964 44.7159 40.1316 46.5651C40.1861 49.4235 40.1872 49.4345 40.4384 49.6342C40.7828 49.9082 41.4537 49.9003 41.7398 49.6191C41.9527 49.4098 41.9582 49.313 41.9266 46.2876L41.8941 43.1717L41.548 42.5204C41.1121 41.7001 40.697 41.234 40.0253 40.8101C38.9761 40.1483 38.9352 40.1435 33.7822 40.0809L29.0857 40.0238L29.1257 37.6629C29.1476 36.3644 29.1769 35.2891 29.1906 35.2733C29.2042 35.2574 29.4985 35.3265 29.8444 35.4268C30.4018 35.5884 31.1556 35.613 36.4773 35.6441L42.4812 35.679V38.1259C42.4812 40.4187 42.4947 40.5895 42.6959 40.841C42.9573 41.1677 43.4465 41.2912 43.7824 41.1155C44.0045 40.9993 46.9419 38.8131 49.9362 36.5355L51.0735 35.6703L52.8124 35.6698C54.8639 35.6692 55.8415 35.5071 56.9928 34.9765C58.7371 34.1727 60.0351 32.7128 60.7014 30.8057L61 29.9507V17.8839V5.81708L60.7105 4.92518C60.1659 3.24675 58.854 1.68383 57.3357 0.904424C55.9746 0.205599 55.3487 0.0721302 53.1821 0.0186165C52.111 -0.00782546 51.1131 0.000568832 50.9645 0.0371889C50.5466 0.140334 50.273 0.472538 50.273 0.876828C50.273 1.78813 50.5152 1.88225 52.8603 1.88225C54.1813 1.88225 54.8915 1.92842 55.3414 2.04363C57.3357 2.55432 58.8873 4.33171 59.1389 6.39418C59.2086 6.9651 59.2358 11.3082 59.2144 18.461C59.1772 30.912 59.2308 30.0237 58.4348 31.3589C57.7656 32.4814 56.3255 33.4885 54.9908 33.7673C54.6797 33.8323 53.5226 33.8855 52.4194 33.8855H50.4136L49.5539 34.5413C47.5146 36.0968 44.4907 38.3478 44.3973 38.3799C44.3353 38.4013 44.2957 37.6325 44.2957 36.4078C44.2957 34.4166 44.2936 34.3986 44.0337 34.1431L43.7717 33.8855L37.4961 33.8838C30.9086 33.8821 30.5956 33.863 29.6194 33.4031L29.1925 33.202L29.1349 27.4316C29.0792 21.8564 29.0694 21.6382 28.8442 20.9793C28.496 19.9605 27.8858 19.0263 27.1379 18.367L26.4708 17.7789L26.474 12.4276C26.4758 9.48433 26.523 6.72209 26.5789 6.28926C26.7725 4.78993 27.8188 3.28305 29.1972 2.51833C30.3499 1.87879 30.301 1.88225 38.1327 1.88225C45.6824 1.88225 45.7528 1.87795 45.9372 1.40535C46.0224 1.187 46.0224 0.688796 45.9372 0.470439C45.7526 -0.00268397 45.6819 -0.00698602 38.1904 0.00182799C32.6897 0.00833356 30.9711 0.0414909 30.4733 0.150827ZM43.9116 7.11284C43.2042 7.43822 42.8033 8.19067 42.802 9.19557C42.8012 9.7838 42.3444 11.1654 41.9673 11.7204C41.6691 12.1591 39.2157 14.9551 38.9102 15.2043C38.7868 15.305 38.7044 15.2969 38.5127 15.1649C38.3063 15.0227 37.8451 14.9983 35.3546 14.9983H32.4382L32.1763 15.2559L31.9143 15.5134V21.5319V27.5505L32.2137 27.8325L32.5129 28.1144H35.4206H38.3282L38.5897 27.8573L38.8511 27.6004L39.5281 27.9118C40.8009 28.4973 41.1893 28.5306 46.7507 28.53C51.6194 28.5295 51.8396 28.521 52.299 28.3162C52.8825 28.0561 53.0999 27.8712 53.4623 27.3274L53.7419 26.9077L53.7724 21.781C53.8024 16.7599 53.7985 16.6449 53.5795 16.2002C53.2948 15.6222 52.6463 15.0442 52.1218 14.901C51.8869 14.8368 50.6332 14.7894 49.1675 14.7891C46.7858 14.7885 46.6258 14.7766 46.6942 14.6048C47.6199 12.2798 47.6038 10.2272 46.6451 8.3169C46.3217 7.67264 46.1175 7.40014 45.8249 7.22239C45.2918 6.89847 44.479 6.85199 43.9116 7.11284ZM45.2312 9.65715C45.4707 10.31 45.5153 10.6013 45.5106 11.4832C45.5048 12.581 45.42 12.8846 44.5732 14.8409C44.2215 15.6536 44.2273 15.8916 44.6077 16.2656L44.9197 16.5723H48.2368C51.4276 16.5723 51.562 16.5803 51.7705 16.7853C51.9827 16.9939 51.9864 17.0951 51.9573 21.7254C51.9286 26.2657 51.9192 26.4585 51.7202 26.6014C51.5487 26.7247 50.7014 26.7503 46.8033 26.7503C43.8689 26.7503 41.8548 26.7073 41.4601 26.6362C40.7685 26.5115 39.6083 25.9621 39.1451 25.5399L38.8521 25.2728V21.6656V18.0584L41.0136 15.6443C42.2023 14.3165 43.3362 12.9684 43.5331 12.6482C44.2156 11.5392 44.6159 10.2948 44.6159 9.28287C44.6159 8.42256 44.8248 8.54963 45.2312 9.65715ZM37.0376 21.5591V26.3361L35.4099 26.3071L33.7822 26.2782L33.7544 21.5301L33.7267 16.7821H35.3821H37.0376V21.5591ZM12.8655 24.4812C12.7036 24.6403 12.585 24.9151 12.5371 25.2419C12.496 25.5233 12.3583 26.3437 12.2313 27.0651L12.0003 28.3767L9.92267 28.4299C8.78005 28.4593 7.75976 28.5238 7.65537 28.5735C7.17206 28.8034 7.10236 29.6576 7.53934 29.9955C7.79999 30.1971 7.95989 30.213 9.72745 30.213H11.6343L11.6292 30.5015C11.6264 30.6602 11.5423 31.1914 11.4424 31.682L11.2607 32.5739L9.48366 32.6263C7.47882 32.6855 7.25809 32.7643 7.25809 33.421C7.25809 34.284 7.545 34.4101 9.50757 34.4101H11.0206L10.9497 34.7511C10.7672 35.629 10.4613 37.5358 10.4607 37.7988C10.4594 38.4716 11.4642 38.8795 11.9488 38.403C12.2115 38.1447 12.3192 37.743 12.5943 35.9946C12.7161 35.2212 12.8408 34.5483 12.8717 34.4993C12.9025 34.4502 13.4292 34.4101 14.0422 34.4101H15.1566L15.1535 34.6987C15.1517 34.8573 15.0403 35.6117 14.9058 36.3749C14.7012 37.5364 14.6829 37.813 14.7935 38.0717C15.0484 38.6677 15.7382 38.7879 16.2111 38.3187C16.4494 38.0822 16.5257 37.8693 16.6344 37.1383C16.7073 36.6477 16.8419 35.8333 16.9335 35.3283L17.1001 34.4101H19.1786H21.257L21.569 34.1034C21.7407 33.9347 21.881 33.6963 21.881 33.5735C21.881 33.2695 21.6069 32.7711 21.3959 32.6915C21.3009 32.6557 20.3625 32.6263 19.3106 32.6263C18.2587 32.6263 17.3981 32.5844 17.3981 32.533C17.3981 32.4349 17.6847 30.8545 17.7759 30.4491C17.8283 30.2162 17.8531 30.213 19.5615 30.2096C21.3703 30.2062 21.5113 30.1748 21.7569 29.7215C21.957 29.3519 21.902 29.0633 21.569 28.7359L21.257 28.4292H19.7011C18.3731 28.4292 18.1452 28.4056 18.1452 28.268C18.1452 28.1794 18.2646 27.4251 18.4105 26.5919C18.6955 24.964 18.6745 24.7028 18.235 24.4C17.8926 24.1643 17.4583 24.1911 17.1318 24.4681C16.8823 24.6799 16.8263 24.8723 16.5901 26.3306C16.4451 27.2251 16.3025 28.0632 16.2732 28.1931C16.2218 28.4204 16.1764 28.4292 15.0478 28.4292C14.4032 28.4292 13.8763 28.3938 13.877 28.3505C13.8778 28.3072 13.9979 27.5708 14.1439 26.7139C14.2899 25.8571 14.4094 25.0934 14.4094 25.0169C14.4094 24.9403 14.2851 24.7325 14.1331 24.5549C13.7795 24.1418 13.2425 24.1105 12.8655 24.4812ZM15.8436 30.7133C15.8065 30.9884 15.7205 31.5196 15.6525 31.8937L15.5289 32.5739L14.3821 32.6037C13.0619 32.638 13.1547 32.7423 13.3465 31.4398C13.5344 30.164 13.477 30.213 14.7844 30.213H15.9111L15.8436 30.7133ZM28.8645 46.1716C26.9449 46.4129 25.6503 48.3521 26.0335 50.4122C26.2076 51.348 26.7207 52.2816 27.4705 53.0268C28.4133 53.9637 30.8757 55.5008 31.4339 55.5008C31.9659 55.5008 34.0708 54.1995 35.1354 53.2125C36.4345 52.008 36.8849 50.996 36.8032 49.4656C36.7287 48.071 36.1079 47.0987 34.881 46.4555C34.4958 46.2536 34.2605 46.2151 33.4086 46.2149C32.4896 46.2146 32.3469 46.2422 31.8854 46.5088C31.3778 46.8021 31.3755 46.8024 31.0849 46.6046C30.5231 46.2219 29.7156 46.0644 28.8645 46.1716ZM29.8542 47.9954C29.9834 48.0319 30.288 48.2953 30.5313 48.5809C30.9054 49.0201 31.0306 49.1001 31.3442 49.1001C31.8277 49.1001 32.0881 48.955 32.2886 48.5741C32.7785 47.6428 34.3386 47.7941 34.8343 48.821C35.3021 49.7903 34.9064 51.0079 33.8053 51.9876C33.1425 52.5773 31.6696 53.5071 31.3985 53.5071C31.1302 53.5071 29.6397 52.5252 28.9619 51.9018C28.1251 51.1323 27.8583 50.6106 27.8583 49.7439C27.8583 48.7825 28.2365 48.1797 28.979 47.9578C29.2963 47.8629 29.4 47.8674 29.8542 47.9954Z" fill="#2FD4C7"/>
</svg>
